<?xml version="1.0" encoding="utf-8"?>
<!-- Generator: Adobe Illustrator 19.0.0, SVG Export Plug-In . SVG Version: 6.00 Build 0)  -->
<svg version="1.1" id="Layer_1" xmlns="http://www.w3.org/2000/svg" xmlns:xlink="http://www.w3.org/1999/xlink" x="0px" y="0px"
	 viewBox="0 0 101.6 34.1" style="enable-background:new 0 0 101.6 34.1;" xml:space="preserve">
<g>
	<path d="M19.1,21.5c-0.1-2.7-0.5-5.3-0.5-8c0-2.2,0.4-4.4-0.4-6.5c0-0.2,0.1-0.5,0.1-0.7c0.2-1-3.3-0.5-3.8,0.5
		c-0.3,0.3-0.5,0.6-0.4,1c0,0.1,0.1,0.2,0.1,0.3c-0.7,3.2-1.6,6.3-2.6,9.4c-0.4,1.2-0.9,2.3-1.3,3.5c-0.6-1.1-1.2-2.2-1.6-3.4
		c-1.4-3.4-2.6-6.9-4.3-10.2c0.2-1.5-3.2-1.4-3.9,0c-0.8,1.7-0.7,3.4-0.4,5.2c0.3,2,0.4,4,0.4,6.1c0,4,0.4,7.9,0.4,11.9
		c-0.4,0.4-0.5,0.9-0.1,1.4c0.2,0.2,0.4,0.4,0.6,0.5C2.4,33.2,5,32.6,5,31.2c0-4.1-0.3-8.2-0.4-12.4c0-0.4,0-0.8,0-1.2
		c0.1,0.1,0.1,0.3,0.2,0.4c0.6,1.6,1.3,3.2,2.2,4.7c0.9,1.5,1.3,3.1,1.8,4.7c-0.2,0.2-0.3,0.5-0.2,0.7c0,0.2,0.1,0.3,0.3,0.4
		c0.6,0.5,1.8,0.3,2.5,0c0.3-0.1,0.6-0.3,0.8-0.4c0.3-0.2,0.9-0.7,0.7-1.2c0-0.1-0.1-0.2-0.1-0.3c0.5-1.3,0.7-2.6,1-3.9
		c0.3-1.4,0.8-2.8,1.3-4.1c0.1,0.6,0.1,1.2,0.2,1.9c0.2,2.6,0,5.1,0,7.6c0,0.8,0.1,1.6,0.2,2.5c0.1,0.3,0.4,1.8,0.3,1.9
		C15,33,15.2,33.6,16,33.8c0.9,0.2,2.1-0.1,2.8-0.7c1.2-1.1,0.6-2.8,0.4-4.2C18.7,26.5,19.2,23.9,19.1,21.5z"/>
	<path d="M27.5,22.2c-0.1-2-0.8-3.9-0.8-5.9c0-2.3,0.2-4.6-0.2-6.9c-0.1-0.7-4.1,0.1-3.9,1c0.3,2.1,0.2,4.2,0.2,6.4
		c0,2,0.5,3.9,0.7,5.9c0.3,2.1-0.1,4.2,0.1,6.2c0.1,1,0.8,2.7,0.1,3.6c-0.4,0.5,1.5,0.3,1.6,0.3c0.8-0.1,1.8-0.4,2.3-1
		c0.7-0.8,0.2-2.4,0.1-3.4C27.4,26.4,27.6,24.2,27.5,22.2z"/>
	<path d="M43.8,18.9c-2.1-2.8-5.9-0.8-8.6-1.5c-1.4-0.4-1.4-2.3-1.4-3.4c0-1.4-0.1-2.7-0.3-4.1c-0.1-1.1,0-2.1,0.7-2.9
		c0.1-0.1,0.9-0.3,0.8-0.3c0.4-0.1,0.7-0.1,1.1-0.1c1.5-0.1,4.6,0.2,4,2.5c-0.3,1,3.6,0.4,3.9-0.6c1.2-4.6-7.3-3.7-9.7-3.1
		c-2.2,0.6-4.6,1.8-4.8,4.4c-0.1,1.2,0.3,2.4,0.3,3.6c0.1,1.4-0.2,2.8,0.3,4.1c1.1,3,5.5,1.6,7.8,1.7c3.8,0.3,2.7,5.5,2.7,7.9
		c0,1.3,1.2,3.4,0.2,4.5c-0.6,0.7-2,0.7-2.8,0.8c-0.8,0.1-2.2,0.3-2.7-0.5c-1-1.4,0.1-3.8-0.1-5.4c-0.1-0.9-4.1-0.1-3.9,1
		c0.3,2.6-1.4,6.1,2.4,6.6c2.4,0.3,5.2-0.2,7.5-0.9c1.2-0.4,2.3-0.9,3.2-1.8c1-0.9,0.7-2.3,0.4-3.5C44.3,24.8,45.7,21.4,43.8,18.9z"
		/>
	<path d="M61.2,18.7c-0.1-3.8-0.7-7.5-0.7-11.3c0-2-4-1.3-4,0.3c0,3.6,0.5,7.2,0.7,10.8c0,0.1,0,0.1,0,0.2c-1.9,0-3.9,0.2-5.9,0.2
		c0.2-4.6-0.6-9.2-0.4-13.9c0-0.6-3.9-0.1-3.9,1c-0.2,4.5,0.6,8.9,0.5,13.4c-0.1,2.1-0.2,4.3-0.3,6.4c0,1.1,0.2,2.2,0.3,3.3
		c0.1,1,0.5,2.3,0.2,3.3c-0.2,0.8,3.6,0.3,3.9-0.7c0.5-1.8-0.2-4-0.4-5.8c-0.2-1.7,0-3.5,0.1-5.2c2-0.1,4.1-0.3,6.1,0
		c0.1,1.4,0.2,2.8,0.3,4.1c0.1,1.2,0.2,2.3,0.2,3.5c0,1,0.1,2.5-0.2,3.5c-0.8,2.1,3.1,1.9,3.7,0.4c0.7-1.9,0.5-4.2,0.4-6.2
		C61.6,23.5,61.2,21.1,61.2,18.7z"/>
	<path d="M78.1,23.1c-0.9-2.8-2.4-5.2-3.6-7.8c1-1.9,2-3.9,2.9-5.9c0.8-1.8,1.4-3.8,3.1-5.1c0.6-0.4,0.6-0.9-0.3-1
		c-0.9-0.1-2.1,0.2-2.8,0.7C76,5.3,75,6.7,74.3,8.4c-0.9,2.1-1.9,4.1-2.9,6.1c-0.1,0.1-0.1,0.3-0.2,0.4c-0.5,0.3-0.8,0.8-0.6,1.3
		c-0.8,1.6-1.6,3.1-2.5,4.6c-0.3-5.5-1-11.1-1.2-16.6c0-1.3-4-0.5-3.9,1c0.2,6.9,1.2,13.7,1.3,20.6c0,0,0,0,0,0.1
		c-0.3,0.3-0.2,0.5,0.1,0.6c0,1.8-0.1,3.5-0.2,5.3c-0.5,0.7,0.5,1.1,1.1,1.1c0,0,0.1,0,0.1,0c0.7,0,2.6-0.3,2.7-1.4
		c0.2-2.1,0.3-4.2,0.2-6.3c1.6-1.7,2.9-3.6,4.1-5.6c0.8,1.5,1.5,3,2,4.6c0.9,2.7,2.3,5.3,3.1,8c0.5,1.8,4.5,0.7,3.9-1
		C80.4,28.4,79,25.9,78.1,23.1z"/>
	<path d="M101.6,18.5c-0.2-0.8-1.4-0.8-2.3-0.8c0-0.3,0-0.7,0-1c-0.1-2.7-0.2-5.4-0.4-8c-0.2-2.5-1.6-3.3-4-3.2
		c-2.4,0.1-5.2,0.5-7.5,1.4c-2.6,1-4.1,2.9-4.6,5.7c-0.5,3,0.2,6.2,0.4,9.2c0.2,3.5,0.1,7,0.1,10.5c0,0.6,3.9,0,3.9-1
		c0-2.8,0-5.6,0-8.3c0-0.8-0.1-1.6-0.1-2.4c1.4-0.6,3.7,0,5.1,0.1c1.1,0.1,2.2-0.2,3.2-0.3c0,2.3,0.1,4.6,0.2,6.9
		c0,1.2,0.5,3.5-0.4,4.5c-0.4,0.5,1.5,0.3,1.6,0.3c0.8-0.1,1.8-0.4,2.3-1c0.9-1.1,0.5-3.8,0.4-5.1c-0.1-1.9-0.1-3.8-0.1-5.7
		C100.5,20.1,101.8,19.4,101.6,18.5z M87,18.4c-0.1-1.2-0.2-2.5-0.3-3.7c-0.2-2.3,0.1-5.6,2.3-7c0.6-0.4,1.7-0.3,2.4-0.4
		c1-0.2,2-0.4,2.8,0.2c1.2,0.8,0.9,3.7,0.9,4.9c0,2,0.2,4,0.3,6c-0.6,0.1-1.1,0.1-1.7,0.1C91.4,18.3,89.1,17.9,87,18.4z"/>
	<path d="M24.1,6.7c0.5-0.1,1-0.2,1.5-0.5C25.7,6.1,25.8,6,25.8,6c0.5-0.3,1-0.8,0.7-1.4c-0.5-1.1-0.4-2.2-0.4-3.4
		c0-1-1-1.2-1.8-1.2c-0.7,0.1-2.2,0.6-2.2,1.5c0,1-0.1,2,0.1,3c0,0.1-0.1,0.2-0.1,0.4c-0.1,0.2,0,0.4,0.1,0.6c0,0,0,0.1,0,0.1
		c0,0.1,0,0.2,0,0.3c0.1,0.2,0.2,0.4,0.4,0.5C23.2,6.7,23.7,6.7,24.1,6.7z"/>
</g>
</svg>
