<svg id="svg4136" xmlns:rdf="http://www.w3.org/1999/02/22-rdf-syntax-ns#" xmlns="http://www.w3.org/2000/svg" xml:space="preserve" height="30.009" viewBox="0 0 62.434124 30.009125" width="62.434" version="1.1" xmlns:cc="http://creativecommons.org/ns#" xmlns:dc="http://purl.org/dc/elements/1.1/"><defs id="defs4140"><clipPath id="clipPath4150" clipPathUnits="userSpaceOnUse"><path id="path4152" d="m0 24.007h49.947v-24.007h-49.947v24.007z"/></clipPath></defs><g id="g4144" transform="matrix(1.25 0 0 -1.25 0 30.009)"><g id="g4146" fill="#fff"><g id="g4148" fill="#fff" clip-path="url(#clipPath4150)"><g id="g4154" transform="translate(1.1377,4.002)"><path id="path4156" d="m0 0c-0.628 0-1.138-0.429-1.138-1.011v-1.981c0-0.557 0.494-1.01 1.139-1.01h47.671c0.628 0 1.138 0.428 1.138 1.01v1.981c0 0.558-0.495 1.011-1.138 1.011h-47.672zm0 10.002c-0.628 0-1.138-0.428-1.138-1.01v-1.98c0-0.557 0.494-1.01 1.139-1.01h47.671c0.628 0 1.138 0.428 1.138 1.01v1.98c0 0.558-0.495 1.01-1.138 1.01h-47.672zm0 10.003c-0.628 0-1.138-0.428-1.138-1.009v-1.982c0-0.557 0.494-1.01 1.139-1.01h47.671c0.628 0 1.138 0.428 1.138 1.01v1.982c0 0.557-0.495 1.009-1.138 1.009h-47.672z" fill="#fff"/></g><g id="g4158" transform="translate(1.1377,4.002)"><path id="path4160" d="m0 0c-0.628 0-1.138-0.429-1.138-1.011v-1.981c0-0.557 0.494-1.01 1.139-1.01h47.671c0.628 0 1.138 0.428 1.138 1.01v1.981c0 0.558-0.495 1.011-1.138 1.011h-47.672zm0 10.002c-0.628 0-1.138-0.428-1.138-1.01v-1.98c0-0.557 0.494-1.01 1.139-1.01h47.671c0.628 0 1.138 0.428 1.138 1.01v1.98c0 0.558-0.495 1.01-1.138 1.01h-47.672zm0 10.003c-0.628 0-1.138-0.428-1.138-1.009v-1.982c0-0.557 0.494-1.01 1.139-1.01h47.671c0.628 0 1.138 0.428 1.138 1.01v1.982c0 0.557-0.495 1.009-1.138 1.009h-47.672z" fill="#fff"/></g></g></g></g></svg>
