<?xml version="1.0" encoding="UTF-8" standalone="no"?>
<!-- Created with Inkscape (http://www.inkscape.org/) -->
<svg id="svg4136" xmlns:rdf="http://www.w3.org/1999/02/22-rdf-syntax-ns#" xmlns="http://www.w3.org/2000/svg" xml:space="preserve" height="50.469" viewBox="0 0 182.875 50.46875" width="182.88" version="1.1" xmlns:cc="http://creativecommons.org/ns#" xmlns:dc="http://purl.org/dc/elements/1.1/"><metadata id="metadata4142"><rdf:RDF><cc:Work rdf:about=""><dc:format>image/svg+xml</dc:format><dc:type rdf:resource="http://purl.org/dc/dcmitype/StillImage"/><dc:title/></cc:Work></rdf:RDF></metadata><defs id="defs4140"><clipPath id="clipPath4150" clipPathUnits="userSpaceOnUse"><path id="path4152" d="m0 40.375h146.3v-40.375h-146.3v40.375z"/></clipPath></defs><g id="g4144" transform="matrix(1.25 0 0 -1.25 0 50.469)"><g id="g4146"><g id="g4148" clip-path="url(#clipPath4150)"><g id="g4154" transform="translate(79.988 10.734)"><path id="path4156" d="m0 0c3.734 0 6.182 1.996 6.182 4.959v0.062c0 3.221-2.414 4.895-6.053 4.895h-5.699v-9.918h5.57v0.002zm-8.114 10.979c0 0.709 0.58 1.289 1.256 1.289h7.18c5.087 0 8.436-2.705 8.436-7.147v-0.063c0-4.861-4.057-7.373-8.854-7.373h-5.474v-6.826c0-0.708-0.58-1.287-1.289-1.287-0.676 0-1.256 0.58-1.256 1.287v20.12h0.001z" fill="#fff"/></g><g id="g4158" transform="translate(93.603,21.875)"><path id="path4160" d="m0 0c0 0.708 0.579 1.288 1.255 1.288 0.709 0 1.288-0.58 1.288-1.288v-20.283c0-0.708-0.579-1.287-1.288-1.287-0.676 0-1.255 0.579-1.255 1.287v20.283z" fill="#fff"/></g><g id="g4162" transform="translate(102.74 21.843)"><path id="path4164" d="m0 0c0 0.676 0.58 1.256 1.256 1.256h0.354c0.58 0 0.935-0.29 1.288-0.74l13.684-17.45v16.998c0 0.676 0.547 1.256 1.256 1.256 0.676 0 1.225-0.58 1.225-1.256v-20.348c0-0.677-0.481-1.191-1.159-1.191h-0.129c-0.547 0-0.935 0.322-1.318 0.773l-13.976 17.867v-17.449c0-0.677-0.546-1.257-1.256-1.257-0.676 0-1.223 0.58-1.223 1.257v20.284h-0.002z" fill="#fff"/></g><g id="g4166" transform="translate(128.17 21.875)"><path id="path4168" d="m0 0c0 0.708 0.58 1.288 1.257 1.288 0.708 0 1.286-0.58 1.286-1.288v-12.331l12.848 13.168c0.29 0.257 0.579 0.451 0.998 0.451 0.675 0 1.224-0.612 1.224-1.256 0-0.354-0.162-0.644-0.42-0.901l-7.984-7.92 8.564-10.561c0.225-0.291 0.354-0.546 0.354-0.935 0-0.676-0.577-1.288-1.285-1.288-0.483 0-0.807 0.259-1.03 0.58l-8.402 10.464-4.863-4.862v-4.894c0-0.708-0.578-1.288-1.286-1.288-0.677 0-1.257 0.58-1.257 1.288v20.285h-0.004z" fill="#fff"/></g><g id="g4170" transform="translate(98.498 30.5)"><path id="path4172" d="m0 0c-2.002 0-3.623 1.623-3.623 3.624 0-2.001-1.623-3.624-3.625-3.624 2.002 0 3.625-1.623 3.625-3.624 0 2.001 1.621 3.624 3.623 3.624" fill="#d22856"/></g><g id="g4174" transform="translate(43.094 21.062)"><path id="path4176" d="m0 0c0.246 0 0.489-0.014 0.73-0.033-0.437 0.728-1.227 1.221-2.136 1.221-0.877 0-1.614 0.568-1.884 1.354-0.727-0.208-1.425-0.482-2.089-0.816 0.062-0.017 0.122-0.038 0.188-0.038 1.104 0 2-0.896 2-2 0-0.096-0.015-0.188-0.028-0.281 1 0.382 2.084 0.593 3.219 0.593" fill="#fff"/></g><g id="g4178" transform="translate(60.462 12.359)"><path id="path4180" d="m0 0c-0.002 0.009-5.175 21.365-5.175 21.365-0.361 2.347-2.593 6.651-8.599 6.651-0.829 0-1.5-0.671-1.5-1.5s0.671-1.5 1.5-1.5c4.856 0 5.575-3.729 5.639-4.143l4.767-19.701h-2.073c-0.445 3.557-2.453 6.628-5.305 8.522-0.897-0.38-1.529-1.269-1.529-2.303 0-0.088-0.015-0.171-0.026-0.256 1.991-1.359 3.415-3.489 3.829-5.965 0.082-0.488 0.135-0.987 0.135-1.5 0-0.512-0.053-1.012-0.135-1.5-0.716-4.272-4.421-7.53-8.896-7.53s-8.181 3.258-8.896 7.53c-0.082 0.488-0.135 0.988-0.135 1.5 0 0.513 0.053 1.012 0.135 1.5 0.147 0.879 0.427 1.712 0.808 2.484-1.034 0.077-1.852 0.932-1.852 1.985 0 0.189-0.077 0.357-0.192 0.488-0.938-1.469-1.569-3.149-1.795-4.957h-1.82c-0.741 5.927-5.802 10.531-11.927 10.531s-11.185-4.602-11.927-10.529h-2.073l4.767 19.701c0.063 0.414 0.783 4.143 5.639 4.143 0.829 0 1.5 0.671 1.5 1.5s-0.671 1.5-1.5 1.5c-6.006 0-8.238-4.304-8.599-6.651 0 0-5.173-21.356-5.175-21.365-0.266-1.109 0.531-1.826 1.426-1.826 0.012 0 0.023-0.004 0.036-0.004h3.982c0.079-0.629 0.215-1.237 0.387-1.831 0.059 0.106 0.102 0.223 0.102 0.353 0 1.105 0.896 2 2 2 0.166 0 0.324-0.024 0.478-0.062-0.043 0.343-0.074 0.687-0.074 1.042 0 0.512 0.053 1.011 0.135 1.5 0.715 4.27 4.421 7.531 8.896 7.531s8.18-3.261 8.896-7.531c0.082-0.489 0.135-0.988 0.135-1.5s-0.053-1.012-0.135-1.5c-0.715-4.273-4.421-7.531-8.896-7.531-2.022 0-3.883 0.67-5.386 1.794-0.35-0.302-0.8-0.492-1.299-0.492-0.413 0-0.749-0.336-0.749-0.748 0-0.289-0.065-0.563-0.176-0.811 2.075-1.708 4.722-2.743 7.614-2.743 6.125 0 11.185 4.603 11.927 10.529h1.814c0.742-5.926 5.802-10.529 11.927-10.529s11.186 4.603 11.927 10.529h3.981c0.012 0 0.023 0.005 0.036 0.005 0.895-0.001 1.692 0.716 1.426 1.825" fill="#fff"/></g><g id="g4182" transform="translate(50.686,24.25)"><path id="path4184" d="m0 0c-2.485 0-4.499 2.014-4.499 4.499 0-2.485-2.014-4.499-4.499-4.499 2.485 0 4.499-2.014 4.499-4.499 0 2.485 2.013 4.499 4.499 4.499" fill="#d22856"/></g><g id="g4186" transform="translate(37.904 20.749)"><path id="path4188" d="m0 0c-1.519 0-2.749 1.23-2.749 2.749 0-1.519-1.23-2.749-2.749-2.749 1.519 0 2.749-1.229 2.749-2.749 0 1.52 1.231 2.749 2.749 2.749" fill="#d22856"/></g><g id="g4190" transform="translate(10.734 6.3027)"><path id="path4192" d="m0 0c-1.519 0-2.749 1.23-2.749 2.75 0-1.52-1.23-2.75-2.749-2.75 1.519 0 2.749-1.229 2.749-2.748 0 1.518 1.23 2.748 2.749 2.748" fill="#d22856"/></g></g></g></g></svg>
