<?xml version="1.0" encoding="utf-8"?>
<!-- Generator: Adobe Illustrator 19.0.0, SVG Export Plug-In . SVG Version: 6.00 Build 0)  -->
<svg version="1.1" id="Layer_1" xmlns="http://www.w3.org/2000/svg" xmlns:xlink="http://www.w3.org/1999/xlink" x="0px" y="0px"
	 viewBox="53.1 53.2 21.8 21.3" style="enable-background:new 53.1 53.2 21.8 21.3;" xml:space="preserve">
<style type="text/css">
	.st0{fill:#231F20;}
</style>
<g id="instagram">
	<g>
		<path class="st0" d="M74.9,65.3c0-2.4-0.3-4.8-0.3-7.1c0-0.8-0.1-1.5-0.2-2.3c-0.1-0.3-0.1-0.7-0.2-1.1c-0.3-0.2-0.2-0.6-0.5-0.8
			c-0.4-0.2-1.2-0.1-1.7-0.2c-0.7,0-1.3-0.1-1.9-0.2c-1.9-0.1-4-0.1-6-0.1c-2,0-4-0.1-5.7-0.4h-2.2c-0.1,0-0.1,0.1-0.2,0.1
			c-0.6,0-1.1,0.2-1.6,0.3c-0.2,0.1-0.4,0.2-0.7,0.3c-0.1,0.2-0.5,0.1-0.6,0.4c-0.2,0.2,0.2,0.5,0,0.6v0.9c0.2,0.1,0,0.6,0.1,0.8v1
			c0,1.3,0.1,2.4,0.1,3.7c0.5,2.8,0.4,6.5,0.1,9.4c0.2,0.6,0.4,1.1,0.5,1.7c0.3,0.5,0.3,1.1,0.7,1.5c0.5,0.2,1.2,0.2,1.9,0.2
			c0.4,0.1,0.7,0.3,1.1,0.3c2.8-0.2,5.5-0.2,8.4-0.2c2.7,0.2,5.8,0.2,8.3-0.2c0.2-0.1,0.1-0.5,0.2-0.8c-0.1-0.4,0.2-0.4,0.2-0.8
			C74.9,70.2,74.9,67.8,74.9,65.3z M61.9,59.1c0.8-0.2,1.5-0.3,2.4-0.3c0.7,0.1,1.3,0.3,1.9,0.5c0.1,0.2-0.2,0.5,0.2,0.7V60
			c0.1,0,0.1,0,0.2,0.1c0.4,0,0.8,0.2,1.1,0.4c0.5,0.1,0.5,0.5,1.1,0.4c-0.1,0.2-0.1,0.5-0.1,0.8c0.3,1.2,0.5,2.8,0.3,4.3
			c-0.2,0.2-0.2,0.4-0.3,0.7c-0.3,0.3-0.5,0.8-0.8,1.1c-0.1,0.2-0.3,0.4-0.5,0.5c-0.1,0.2-0.2,0.5-0.5,0.5c-0.3,0.2-0.6,0-0.8-0.1
			c-0.4,0.2-0.9,0.3-1.2,0.6c-0.8-0.1-1.6-0.2-2.4-0.3c-0.2-0.1-0.5-0.3-0.8-0.3c-0.2-0.2-0.5-0.4-0.8-0.5c-0.1-0.1-0.3-0.1-0.5-0.2
			c-0.2,0-0.2-0.2-0.5-0.2c-0.1-0.4-0.4-0.6-0.5-1.1c-0.2-0.3-0.3-0.8-0.5-1.2c0-1.4,0.1-2.7,0.4-3.8c0.3-0.6,0.8-1.1,1.1-1.7
			c0.2,0,0.4-0.1,0.4-0.3c0.3,0.1,0.4-0.1,0.7-0.1C61.7,59.6,61.7,59.3,61.9,59.1z M60.2,56.4c-0.1-0.3-0.1-0.7-0.1-1.1
			c0-0.3,0.3-0.3,0.3-0.5c0-0.1-0.1-0.1-0.2-0.1c0.1-0.1,0.7-0.1,0.8,0c0.1,0.5-0.4,0.5-0.5,0.7c0,0.2,0.3,0,0.5,0.1
			c0,0.9-0.1,1.5,0,2.2h-0.5c0,0.2,0.2,0.2,0.5,0.2c-0.1,0.3,0.1,0.4,0.1,0.6c-0.2,0.2-0.7,0-1.1,0.1C60,58,60.3,57.2,60.2,56.4z
			 M59.5,54.8c0.1,0,0.1,0,0.2,0.1c0.2,0.3,0,0.7-0.1,0.9C59.4,55.6,59.6,55.1,59.5,54.8z M59.7,56.6c-0.1-0.1-0.2-0.2-0.2-0.5
			C59.7,56.2,59.7,56.4,59.7,56.6z M59.7,58c-0.1,0.1-0.1,0-0.1-0.2C59.7,57.7,59.7,57.9,59.7,58z M59.5,58.2c0.2,0,0.1,0.2,0.2,0.2
			c0,0.2-0.3,0.2-0.4,0.1C59.4,58.4,59.5,58.3,59.5,58.2z M57.2,57c0-0.1,0-0.2-0.1-0.2c-0.1-0.7,0.1-1.4,0-2c0.3-0.2,0.8,0,1.1-0.1
			v1.1c-0.1,0.1-0.2,0.1-0.4,0.1c-0.1,0.3,0.3,0.1,0.4,0.3c0,0.9-0.1,1.8,0.2,2.4c-0.6-0.1-0.9,0.1-1.4,0.1c0.1-0.6,0-1.4,0.5-1.6
			C57.5,57,57.2,57.1,57.2,57z M56.7,57c-0.2,0-0.2-0.5-0.1-0.6C56.9,56.4,56.8,56.9,56.7,57z M56.5,58c0.1-0.3,0-0.3,0.1-0.7
			C56.8,57.3,56.8,58.1,56.5,58z M56.7,55.9c-0.3,0.1-0.3-0.3-0.2-0.4C56.8,55.5,56.9,55.8,56.7,55.9z M56.7,54.8
			c0,0.2-0.1,0.2-0.1,0.3c-0.2,0-0.1-0.2-0.2-0.2C56.5,54.8,56.6,54.8,56.7,54.8z M56.5,58.5c0.1,0,0.1,0.3-0.1,0.2
			C56.5,58.7,56.5,58.6,56.5,58.5z M55.8,54.8c0,0.3-0.4,0.3-0.4,0H55.8z M54.8,54.9c0,0.2-0.3,0.2-0.4,0.4
			C54.2,55.1,54.5,54.8,54.8,54.9z M54.4,55.6c0.2-0.2,0.5-0.4,0.7-0.6c0-0.1,0.1-0.1,0.1-0.2h0.2c0.1,0.4-0.3,0.3-0.3,0.5
			c0,0.1-0.1,0.1-0.1,0.2c0,0.3,0.1,0.6,0.1,1c-0.3,0-0.3,0.3-0.6,0.2C54.5,56.3,54.3,56.1,54.4,55.6z M54.5,58.9v-1.6
			c0.2-0.2,0.4-0.4,0.6-0.5c0.3,0.5,0.2,1.4,0.5,1.9C55.2,58.8,54.8,58.8,54.5,58.9z M72.7,70c-0.1,1-0.2,2-0.4,2.8
			c-2.9,0.1-6,0-8.9,0.2c-0.2,0-0.3,0-0.2-0.2c-0.3,0-0.3,0.2-0.5,0.2c0.2-0.3,0.4-0.9,0.2-1.3c-0.8,0-0.8,0.8-1.1,1.3
			c-0.7-0.1-1.1,0.1-1.8,0.1c0.2-0.7,0.7-1,0.9-1.7c-0.4-0.5-1,0.1-1.2,0.5c-0.2,0.5-0.6,0.8-0.8,1.3h-1c0.2-0.5,0.5-0.9,0.8-1.4
			c0.2-0.5,0.6-0.7,0.7-1.4c-0.2-0.3-0.4,0-0.7,0c-0.1,0.2-0.3,0.3-0.4,0.5c-0.2,0.4-0.5,0.7-0.7,1.1c-0.2,0.2-0.3,0-0.5,0.2
			c-0.4,0.3-0.6,0.7-1,1c-0.2-0.1,0-0.4,0.2-0.4c0-0.2-0.1-0.5,0.1-0.6c0.1-0.4,0.2-0.6,0.4-0.9c0.1-0.7,0.5-1.2,0.7-1.9
			c-0.6,0.1-0.7,0.6-1,1c-0.2,0.4-0.5,0.8-0.7,1.3c-0.2-0.1,0-0.6-0.1-0.8c0.1-0.6,0.3-1.1,0.4-1.7c0.1-0.2,0.2-0.5,0.2-0.8
			c0.2-0.2,0-0.6-0.1-0.8c-0.2,0-0.4,0.1-0.5,0.3c-0.2,0-0.2,0.5-0.3,0.3c0-2.6-0.5-4.8-0.5-7.4c0-0.3-0.2-0.4-0.2-0.7
			c1.6,0,3.1,0.1,4.8,0.2c-0.1,0.1-0.2,0.3-0.3,0.4c-0.1,0.1-0.2,0.2-0.4,0.3c-0.6,1.7-1,4-0.6,6.2c0.2,0.6,0.6,1,1,1.4
			c0.9,0.5,1.6,1.1,2.5,1.7c1.7,0.4,3.8,0.4,5.5,0c0.2-0.1,0.5-0.2,0.7-0.4c1.4-1.2,2.8-2.5,3-4.9v-1.4c-0.2-1.6-0.7-2.9-1.7-3.6
			c0.3-0.2,1.1,0,1.7,0.1c0.2,0,0.4,0,0.7,0c0.4,0,0.9-0.1,1.4,0c0.1,0.2,0.1,0.5,0.2,0.8c-0.1,1.7-0.2,3.3-0.2,5.1
			c0.1,0.5,0.1,1,0.2,1.4C73,68.2,72.9,69.1,72.7,70z M73.1,58.8c-0.6-0.1-1.2-0.3-1.9-0.4c0.1-0.3,0.8,0,1-0.2
			c0.4-0.2,0.3-0.9,0.3-1.5c0-0.3,0.1-0.6,0.1-1.1c-0.4-1-1.8-0.4-2.9-0.5c-0.2,0.7-0.5,1.8-0.3,2.7c0.2,0.5,1,0.3,1.5,0.5
			c-0.1,0.3-0.7,0.1-1,0.1c-0.3-0.1-0.7-0.1-1-0.2c-2.3,0.1-4.3,0-6.5,0.2c0.1-1.2,0.1-2.5-0.1-3.6h3.1c-0.3,0.4-0.9,0.5-1.3,0.8
			c-0.4,0.2-0.9,0.5-1.1,0.9c0.2,0.1,0.5-0.2,0.8-0.4c0.4-0.1,0.5-0.4,0.8-0.5c0.4-0.4,1.1-0.6,1.7-0.9c0.4,0,0.7,0,1,0.1
			c1.3,0,2.5,0.1,3.8,0.1c0.6,0.1,1.5,0.1,2,0.3c0.1,0.3,0.2,0.6,0.3,0.9C73.3,57.1,73.1,57.9,73.1,58.8z M67.2,55.1
			C67.3,55,67.2,55,67.2,55.1L67.2,55.1z M67.2,55.1c-0.5,0.2-1,0.3-1.4,0.7C66.3,55.6,66.9,55.5,67.2,55.1z M68.3,55.7
			C68.4,55.6,68.3,55.6,68.3,55.7L68.3,55.7z M66.5,56.6c0.7-0.2,1.2-0.6,1.7-0.9c-0.4,0-0.6,0.3-1,0.4
			C67.1,56.3,66.7,56.3,66.5,56.6z M65.8,55.8C65.7,55.8,65.9,55.9,65.8,55.8L65.8,55.8z M65.2,56.4C65.3,56.3,65.2,56.3,65.2,56.4
			L65.2,56.4z M65.1,56.5C65.2,56.5,65.2,56.4,65.1,56.5C65.1,56.4,65.1,56.4,65.1,56.5z M65,56.5C65.1,56.5,65.1,56.5,65,56.5
			C65,56.4,65,56.5,65,56.5z M64.2,57.1c0.3-0.1,0.6-0.3,0.8-0.6C64.7,56.7,64.4,56.9,64.2,57.1z M66.5,58.1c0.5,0,0.7-0.4,1.2-0.5
			c0.3-0.3,0.8-0.4,1-0.8c-0.6,0-0.8,0.4-1.2,0.5C67.2,57.7,66.7,57.8,66.5,58.1z M64.2,57.1C63.9,57.1,64.2,57.4,64.2,57.1
			L64.2,57.1z M63.6,57.5C63.7,57.5,63.8,57.5,63.6,57.5C63.7,57.4,63.6,57.5,63.6,57.5z M66.5,58.1C66.3,58.2,66.5,58.2,66.5,58.1
			L66.5,58.1z M65.3,59.9c-0.2-0.2-0.7-0.2-1-0.4c-0.7,0-1.2,0.1-1.7,0.2c-0.3,0.2-0.6,0.3-0.9,0.5c-0.3,0.2-0.4,0.4-0.8,0.5
			c-0.2,0.2-0.4,0.5-0.7,0.6c0,0.2-0.2,0.3-0.3,0.4c-0.1,0.1-0.1,0.3-0.2,0.4c0,0.1,0,0.3-0.1,0.3c0.1,1.5,0.3,2.9,0.7,4.2
			c0.3,0.6,1,0.8,1.4,1.3c0.6,0.3,1.3,0.4,2.1,0.5c0.3-0.1,0.6-0.1,0.9-0.1c1.2-0.2,2.1-0.7,2.8-1.4c0.1-0.3,0.3-0.5,0.5-0.7
			c-0.3-0.7,0.3-1.1,0.5-1.6c0-1.3-0.2-2.5-0.6-3.4c-0.3-0.6-0.9-0.8-1.4-1.1c-0.1,0-0.2,0-0.2-0.1C66.1,59.9,65.6,59.8,65.3,59.9z
			 M61.9,64.3c-0.1-0.1-0.1-0.2-0.2-0.4C62,63.8,61.9,64.1,61.9,64.3z M62,64.6C62,64.5,62.1,64.6,62,64.6C62,64.8,62,64.7,62,64.6z
			 M62.4,62.5C62.4,62.4,62.5,62.5,62.4,62.5C62.5,62.6,62.4,62.6,62.4,62.5z M64.1,60.4c-0.2,0.3,0,0.6,0.1,0.8
			C63.9,61.2,63.6,60.4,64.1,60.4z M64.5,64.3C64.4,64.3,64.5,64.3,64.5,64.3C64.6,64.3,64.5,64.4,64.5,64.3z M65.2,67.2
			c0-0.1,0.1,0,0.2,0C65.4,67.3,65.2,67.3,65.2,67.2z M67.4,64.7c-0.2-0.1-0.1,0.2-0.4,0.2c0.1-0.2,0.1-0.3,0.2-0.5
			C67.4,64.4,67.5,64.5,67.4,64.7z M66.3,60.9c0.2,0.1,0.4,0.2,0.6,0.4c0.1,0.2,0.2,0.4,0.4,0.5c0.1,0.8,0.2,1.5,0.2,2.4
			c-0.3,0.1-0.4,0.3-0.7,0.4c-0.8,0-1.4-0.2-1.9-0.5c-0.2-0.3-0.4-0.5-0.5-0.8v-1.1c0.2-0.2,0.3-0.4,0.5-0.6
			c0.2-0.1,0.5-0.2,0.5-0.6c0-0.1-0.1-0.1-0.1-0.2c0.2,0,0.2,0.2,0.4,0.2C65.9,61,66,60.8,66.3,60.9z"/>
	</g>
</g>
</svg>
