<?xml version="1.0" encoding="utf-8"?>
<!-- Generator: Adobe Illustrator 19.0.0, SVG Export Plug-In . SVG Version: 6.00 Build 0)  -->
<svg version="1.1" id="Layer_1" xmlns="http://www.w3.org/2000/svg" xmlns:xlink="http://www.w3.org/1999/xlink" x="0px" y="0px"
	 viewBox="-0.8 -0.8 17.6 17.6" style="enable-background:new -0.8 -0.8 17.6 17.6;" xml:space="preserve">
<style type="text/css">
	.st0{fill:#231F20;}
</style>
<path class="st0" d="M16.5,14.9l-3.4-3.4c1-1.3,1.5-2.9,1.5-4.6c0-4.3-3.4-7.7-7.7-7.7s-7.7,3.4-7.7,7.7c0,4.3,3.4,7.7,7.7,7.7
	c1.7,0,3.3-0.6,4.6-1.5l3.4,3.4c0.2,0.2,0.4,0.3,0.8,0.3c0.6,0,1.1-0.5,1.1-1.1C16.8,15.5,16.7,15.2,16.5,14.9z M1.4,6.9
	c0-3,2.5-5.5,5.5-5.5s5.5,2.5,5.5,5.5s-2.5,5.5-5.5,5.5S1.4,9.9,1.4,6.9z"/>
</svg>
