<?xml version="1.0" encoding="utf-8"?>
<!-- Generator: Adobe Illustrator 21.0.1, SVG Export Plug-In . SVG Version: 6.00 Build 0)  -->
<svg version="1.1" id="Layer_1" xmlns="http://www.w3.org/2000/svg" xmlns:xlink="http://www.w3.org/1999/xlink" x="0px" y="0px"
	 viewBox="0 0 34 34" style="enable-background:new 0 0 34 34;" xml:space="preserve">
<style type="text/css">
	.st0{fill:#546E7A;}
	.st1{fill:#FFFFFF;}
</style>
<g>
	<path class="st0" d="M0,34C0,22.7,0,11.3,0,0c11.3,0,22.7,0,34,0c0,11.3,0,22.7,0,34C22.7,34,11.3,34,0,34z M6.3,17.2
		C6.3,17.2,6.3,17.2,6.3,17.2c0,2.8,0,5.7,0,8.5c0,0.4,0.1,0.5,0.4,0.6c0.3,0.1,0.6,0.1,0.8,0.1c0.7,0,1.3,0.1,2-0.1
		c0.4-0.1,0.5-0.2,0.5-0.7c0-2.2,0-4.4,0-6.6c0-0.2,0-0.2,0.2-0.2c1.6,0,3.3,0,4.9,0c0.4,0,0.6-0.1,0.7-0.5c0.2-0.7,0.2-1.4,0-2
		c-0.1-0.4-0.3-0.5-0.7-0.5c-1.7,0-3.3,0-5,0c-0.2,0-0.2,0-0.2-0.2c0-1.5,0-3.1,0-4.6c0-0.2,0-0.2,0.2-0.2c1.8,0,3.6,0,5.4,0
		c0.2,0,0.4-0.1,0.5-0.3c0.1-0.1,0.1-0.2,0.1-0.3c0.1-0.6,0.1-1.3,0-1.9c0-0.1-0.1-0.2-0.1-0.3c-0.1-0.2-0.3-0.4-0.5-0.4
		c-2.7,0-5.5,0-8.2,0c-0.1,0-0.1,0-0.2,0c-0.5,0-0.9,0.4-1,0.9c0,0.2,0,0.3,0,0.5C6.3,11.7,6.3,14.5,6.3,17.2z M23.9,23.2
		c0-0.1,0-0.2,0-0.2c0-4.5,0-9,0-13.4c0-0.5,0-0.9,0-1.4c0-0.2-0.1-0.3-0.2-0.4c-0.1-0.1-0.2-0.1-0.3-0.1c-0.3,0-0.6-0.1-0.9-0.1
		c-0.6,0-1.3,0-1.9,0.1c-0.4,0.1-0.5,0.3-0.5,0.7c0,5.6,0,11.2,0,16.7c0,0.1,0,0.2,0,0.2c0,0.6,0.3,1,0.9,1.1c0.1,0,0.3,0,0.5,0
		c2.2,0,4.3,0,6.5,0c0.4,0,0.6-0.1,0.7-0.5c0.1-0.6,0.1-1.2,0.1-1.8c0-0.2-0.1-0.4-0.1-0.5c-0.1-0.3-0.2-0.4-0.5-0.4
		c-1.3,0-2.6,0-3.9,0C24.1,23.2,24,23.2,23.9,23.2z"/>
	<path class="st1" d="M6.3,17.2c0-2.8,0-5.5,0-8.3c0-0.2,0-0.3,0-0.5c0.1-0.5,0.5-0.8,1-0.9c0.1,0,0.1,0,0.2,0c2.7,0,5.5,0,8.2,0
		c0.3,0,0.4,0.1,0.5,0.4c0,0.1,0.1,0.2,0.1,0.3c0.1,0.6,0.1,1.3,0,1.9c0,0.1-0.1,0.2-0.1,0.3c-0.1,0.2-0.3,0.3-0.5,0.3
		c-1.8,0-3.6,0-5.4,0c-0.2,0-0.2,0-0.2,0.2c0,1.5,0,3.1,0,4.6c0,0.2,0,0.2,0.2,0.2c1.7,0,3.3,0,5,0c0.4,0,0.6,0.1,0.7,0.5
		c0.1,0.7,0.1,1.4,0,2c-0.1,0.4-0.3,0.5-0.7,0.5c-1.6,0-3.3,0-4.9,0c-0.2,0-0.2,0-0.2,0.2c0,2.2,0,4.4,0,6.6c0,0.5-0.1,0.6-0.5,0.7
		c-0.7,0.2-1.3,0.2-2,0.1c-0.3,0-0.6-0.1-0.8-0.1c-0.3-0.1-0.4-0.3-0.4-0.6C6.3,22.9,6.3,20.1,6.3,17.2C6.3,17.2,6.3,17.2,6.3,17.2z
		"/>
	<path class="st1" d="M23.9,23.2c0.1,0,0.2,0,0.2,0c1.3,0,2.6,0,3.9,0c0.3,0,0.4,0.1,0.5,0.4c0.1,0.2,0.1,0.3,0.1,0.5
		c0,0.6,0.1,1.2-0.1,1.8c-0.1,0.4-0.2,0.5-0.7,0.5c-2.2,0-4.3,0-6.5,0c-0.2,0-0.3,0-0.5,0c-0.5-0.1-0.8-0.5-0.9-1.1
		c0-0.1,0-0.2,0-0.2c0-5.6,0-11.2,0-16.7c0-0.4,0.1-0.6,0.5-0.7c0.6-0.1,1.2-0.2,1.9-0.1c0.3,0,0.6,0.1,0.9,0.1
		c0.1,0,0.2,0.1,0.3,0.1c0.2,0.1,0.2,0.2,0.2,0.4c0,0.5,0,0.9,0,1.4c0,4.5,0,9,0,13.4C23.9,23.1,23.9,23.1,23.9,23.2z"/>
</g>
</svg>
