<?xml version="1.0" encoding="utf-8"?>
<!-- Generator: Adobe Illustrator 21.0.1, SVG Export Plug-In . SVG Version: 6.00 Build 0)  -->
<svg version="1.1" id="Layer_1" xmlns="http://www.w3.org/2000/svg" xmlns:xlink="http://www.w3.org/1999/xlink" x="0px" y="0px"
	 viewBox="0 0 40 40" style="enable-background:new 0 0 40 40;" xml:space="preserve">
<style type="text/css">
	.st0{fill:#546E7A;}
	.st1{fill:#FFFFFF;}
</style>
<g>
	<path class="st0" d="M37,33.6c0,1.9-1.6,3.4-3.4,3.4H6.4C4.6,37,3,35.4,3,33.6V6.4C3,4.6,4.6,3,6.4,3h27.2C35.4,3,37,4.6,37,6.4
		V33.6z"/>
	<g>
		<path class="st1" d="M28.5,20.1c0,4.7-3.9,8.5-8.5,8.5s-8.5-3.9-8.5-8.5c0-1.2,0.3-2.3,0.8-3.4h-6V32c0,1,0.7,1.7,1.7,1.7h23.9
			c0.9,0,1.7-0.8,1.7-1.7V16.7h-5.9C28.3,17.7,28.5,18.8,28.5,20.1z"/>
		<path class="st1" d="M19.9,25.2c2.8,0,5.1-2.3,5.1-5.1S22.7,15,19.9,15s-5.1,2.3-5.1,5.1C15.1,22.9,17.3,25.2,19.9,25.2z"/>
		<rect x="28.5" y="6.4" class="st1" width="5.1" height="5.1"/>
	</g>
</g>
</svg>
