<?xml version="1.0" encoding="utf-8"?>
<!-- Generator: Adobe Illustrator 21.0.1, SVG Export Plug-In . SVG Version: 6.00 Build 0)  -->
<svg version="1.1" id="Layer_1" xmlns="http://www.w3.org/2000/svg" xmlns:xlink="http://www.w3.org/1999/xlink" x="0px" y="0px"
	 viewBox="0 0 40 40" style="enable-background:new 0 0 40 40;" xml:space="preserve">
<style type="text/css">
	.st0{fill:#425F6C;}
	.st1{fill:#546E7A;}
	.st2{fill:#FFFFFF;}
</style>
<g>
	<polygon class="st0" points="24.7,28.5 21.3,37 20.3,32.5 6.4,32.5 	"/>
	<polygon class="st1" points="33.6,30.5 21.3,37 23.5,29.7 6.4,32.5 6.4,3 33.6,3 	"/>
	<g>
		<g>
			<path class="st2" d="M11.2,7.8v7.4h-1V7.8H11.2z"/>
			<path class="st2" d="M12.4,8.6V7.8h5.8v0.8h-2.4v6.6h-1V8.6H12.4z"/>
			<path class="st2" d="M22,7.8v7.4h-1V7.8H22z"/>
			<path class="st2" d="M24.8,12.8c0,1,0.8,1.7,2.1,1.7c1.3,0,1.8-0.7,1.8-1.4c0-0.9-0.8-1.2-1.5-1.3c-1.7-0.4-3.2-0.5-3.2-2.2
				c0-1.4,1.1-2.1,2.8-2.1c1.8,0,2.6,1,2.7,2.1h-1c-0.1-1.2-1.3-1.3-1.8-1.3c-1,0-1.7,0.5-1.7,1.2c0,0.9,0.9,1,1.8,1.2
				c1.3,0.3,2.8,0.5,2.8,2.3c0,2.2-2.3,2.2-2.9,2.2c-1.1,0-2.9-0.2-3-2.6H24.8z"/>
		</g>
		<g>
			<path class="st2" d="M12.4,19.9L12.4,19.9l0,6.5h-2.1v-9.1h3l2.2,6.2l2.2-6.2h3v9.1h-2.1v-6.5h0l-2.3,6.5h-1.5L12.4,19.9z"/>
			<path class="st2" d="M29.1,21v1.7h-4.4v2h5.2v1.8h-7.3v-9.1h7.2v1.8h-5V21H29.1z"/>
		</g>
	</g>
</g>
</svg>
