<?xml version="1.0" encoding="utf-8"?>
<!-- Generator: Adobe Illustrator 21.0.1, SVG Export Plug-In . SVG Version: 6.00 Build 0)  -->
<svg version="1.1" id="Layer_1" xmlns="http://www.w3.org/2000/svg" xmlns:xlink="http://www.w3.org/1999/xlink" x="0px" y="0px"
	 viewBox="0 0 58 34" style="enable-background:new 0 0 58 34;" xml:space="preserve">
<style type="text/css">
	.st0{fill:#788C96;}
	.st1{fill:#546E7A;}
	.st2{fill:#FFFFFF;}
	.st3{fill:none;stroke:#FFFFFF;stroke-width:0.1632;stroke-miterlimit:2.6131;}
</style>
<g>
	<polygon class="st0" points="40.4,33.8 41.2,33.8 42.1,33.8 43,33.6 43.8,33.5 44.6,33.3 45.4,33.1 46.2,32.8 47,32.5 47.8,32.2 
		48.5,31.8 49.2,31.4 49.9,30.9 50.6,30.5 51.2,30 51.8,29.4 52.4,28.9 53,28.3 53.5,27.6 54,27 54.5,26.3 54.9,25.6 55.4,24.9 
		55.7,24.2 56.1,23.4 56.4,22.7 56.6,21.9 56.9,21.1 57.1,20.2 57.2,19.4 57.3,18.6 57.4,17.7 57.4,16.8 57.4,15.9 57.3,15.1 
		57.2,14.2 57.1,13.4 56.9,12.6 56.6,11.8 56.4,11 56.1,10.2 55.7,9.5 55.4,8.7 54.9,8 54.5,7.3 54,6.7 53.5,6 53,5.4 52.4,4.8 
		51.8,4.3 51.2,3.7 50.6,3.2 49.9,2.7 49.2,2.3 48.5,1.9 47.8,1.5 47,1.2 46.2,0.9 45.4,0.6 44.6,0.4 43.8,0.2 43,0 42.1,-0.1 
		41.2,-0.1 40.4,-0.2 39.5,-0.1 38.6,-0.1 37.8,0 36.9,0.2 36.1,0.4 35.3,0.6 34.5,0.9 33.8,1.2 33,1.5 32.3,1.9 31.6,2.3 30.9,2.7 
		30.2,3.2 29.6,3.7 29,4.3 28.4,4.8 27.8,5.4 27.3,6 26.8,6.7 26.3,7.3 25.9,8 25.5,8.7 25.1,9.5 24.7,10.2 24.4,11 24.2,11.8 
		23.9,12.6 23.7,13.4 23.6,14.2 23.5,15.1 23.4,15.9 23.4,16.8 23.4,17.7 23.5,18.6 23.6,19.4 23.7,20.2 23.9,21.1 24.2,21.9 
		24.4,22.7 24.7,23.4 25.1,24.2 25.5,24.9 25.9,25.6 26.3,26.3 26.8,27 27.3,27.6 27.8,28.3 28.4,28.9 29,29.4 29.6,30 30.2,30.5 
		30.9,30.9 31.6,31.4 32.3,31.8 33,32.2 33.8,32.5 34.5,32.8 35.3,33.1 36.1,33.3 36.9,33.5 37.8,33.6 38.6,33.8 39.5,33.8 
		40.4,33.8 	"/>
	<polygon class="st1" points="17.6,33.8 18.5,33.8 19.4,33.8 20.2,33.6 21.1,33.5 21.9,33.3 22.7,33.1 23.5,32.8 24.2,32.5 25,32.2 
		25.7,31.8 26.4,31.4 27.1,30.9 27.8,30.5 28.4,30 29,29.4 29.6,28.9 30.2,28.3 30.7,27.6 31.2,27 31.7,26.3 32.1,25.6 32.6,24.9 
		32.9,24.2 33.3,23.4 33.6,22.7 33.8,21.9 34.1,21.1 34.3,20.2 34.4,19.4 34.5,18.6 34.6,17.7 34.6,16.8 34.6,15.9 34.5,15.1 
		34.4,14.2 34.3,13.4 34.1,12.6 33.8,11.8 33.6,11 33.3,10.2 32.9,9.5 32.6,8.7 32.1,8 31.7,7.3 31.2,6.7 30.7,6 30.2,5.4 29.6,4.8 
		29,4.3 28.4,3.7 27.8,3.2 27.1,2.7 26.4,2.3 25.7,1.9 25,1.5 24.2,1.2 23.5,0.9 22.7,0.6 21.9,0.4 21.1,0.2 20.2,0 19.4,-0.1 
		18.5,-0.1 17.6,-0.2 16.8,-0.1 15.9,-0.1 15,0 14.2,0.2 13.4,0.4 12.6,0.6 11.8,0.9 11,1.2 10.2,1.5 9.5,1.9 8.8,2.3 8.1,2.7 
		7.4,3.2 6.8,3.7 6.2,4.3 5.6,4.8 5,5.4 4.5,6 4,6.7 3.5,7.3 3.1,8 2.6,8.7 2.3,9.5 1.9,10.2 1.6,11 1.4,11.8 1.1,12.6 0.9,13.4 
		0.8,14.2 0.7,15.1 0.6,15.9 0.6,16.8 0.6,17.7 0.7,18.6 0.8,19.4 0.9,20.2 1.1,21.1 1.4,21.9 1.6,22.7 1.9,23.4 2.3,24.2 2.6,24.9 
		3.1,25.6 3.5,26.3 4,27 4.5,27.6 5,28.3 5.6,28.9 6.2,29.4 6.8,30 7.4,30.5 8.1,30.9 8.8,31.4 9.5,31.8 10.2,32.2 11,32.5 
		11.8,32.8 12.6,33.1 13.4,33.3 14.2,33.5 15,33.6 15.9,33.8 16.8,33.8 17.6,33.8 	"/>
	<polygon class="st0" points="27,6.4 36,6.4 36,5.4 27.8,5.4 27,6.4 	"/>
	<polygon class="st0" points="25.7,8.4 36,8.4 36,7.5 26.2,7.5 25.7,8.4 	"/>
	<polygon class="st0" points="24.6,10.5 36,10.5 36,9.5 25,9.5 24.6,10.5 	"/>
	<polygon class="st0" points="24,12.5 36,12.5 36,11.6 24.2,11.6 24,12.5 	"/>
	<polygon class="st0" points="24.4,22.4 36.1,22.4 36.1,21.5 24.1,21.5 24.4,22.4 	"/>
	<polygon class="st0" points="25.2,24.5 36.1,24.5 36.1,23.6 24.8,23.6 25.2,24.5 	"/>
	<polygon class="st0" points="26.4,26.5 36.1,26.5 36.1,25.6 25.9,25.6 26.4,26.5 	"/>
	<polygon class="st0" points="28.1,28.6 36.1,28.6 36.1,27.7 27.3,27.7 28.1,28.6 	"/>
	<polygon class="st0" points="23.5,14.6 36,14.6 36,13.6 23.7,13.6 23.5,14.6 	"/>
	<polygon class="st0" points="31.2,20.4 35.9,20.4 35.9,19.5 31.3,19.5 31.2,20.4 	"/>
	<polygon class="st0" points="31.5,18.3 35.9,18.3 35.9,17.4 31.7,17.4 31.5,18.3 	"/>
	<polygon class="st0" points="23.2,17.4 24.5,17.4 24.5,18.3 23.3,18.3 23.2,17.4 	"/>
	<polygon class="st2" points="20.9,16.3 20.8,16.3 20.8,16.3 20.7,16.3 20.6,16.3 20.5,16.2 20.5,16.2 20.4,16.2 20.3,16.2 
		20.2,16.2 20.1,16.2 20,16.2 19.9,16.2 19.8,16.2 19.7,16.2 19.5,16.2 19.4,16.2 19.2,16.2 19.1,16.2 19,16.3 19,16.3 18.9,16.3 
		18.8,16.4 18.7,16.5 18.7,16.5 18.7,16.6 18.6,16.6 18.6,16.7 18.6,16.8 18.6,16.8 18.7,16.9 18.7,17 18.8,17.1 18.9,17.2 19,17.3 
		19.2,17.3 19.3,17.4 19.5,17.5 19.7,17.5 19.9,17.6 20.1,17.7 20.3,17.8 20.4,17.9 20.6,18 20.7,18.2 20.8,18.4 20.8,18.7 20.9,19 
		20.8,19.3 20.8,19.6 20.7,19.9 20.6,20.1 20.5,20.3 20.4,20.4 20.2,20.6 20.1,20.7 19.9,20.8 19.7,20.9 19.5,21 19.3,21 19.1,21.1 
		18.9,21.1 18.7,21.1 18.6,21.1 18.4,21.1 18.1,21.1 17.9,21.1 17.7,21.1 17.5,21.1 17.3,21.1 17.2,21.1 17.1,21.1 16.9,21.1 
		16.8,21.1 16.7,21 16.6,21 16.5,21 16.4,21 16.3,20.9 16.2,20.9 16.1,20.9 16.4,19.6 16.4,19.6 16.5,19.6 16.6,19.7 16.7,19.7 
		16.8,19.7 16.9,19.7 17,19.8 17.1,19.8 17.3,19.8 17.4,19.8 17.6,19.8 17.7,19.9 17.9,19.9 18.1,19.9 18.2,19.9 18.4,19.9 
		18.6,19.8 18.7,19.8 18.8,19.7 18.9,19.6 18.9,19.6 19,19.5 19,19.4 19,19.3 19.1,19.1 19,19 18.9,18.9 18.8,18.8 18.6,18.7 
		18.4,18.6 18.2,18.5 17.9,18.4 17.7,18.3 17.5,18.2 17.3,18.1 17.1,17.9 17,17.7 16.9,17.4 16.8,17.1 16.8,16.7 16.8,16.5 
		16.9,16.3 16.9,16.1 17,15.9 17.1,15.7 17.2,15.6 17.3,15.4 17.5,15.3 17.6,15.2 17.8,15.1 18,15 18.3,15 18.5,14.9 18.8,14.9 
		19.1,14.9 19.4,14.8 19.7,14.8 19.9,14.9 20,14.9 20.2,14.9 20.3,14.9 20.5,14.9 20.6,14.9 20.7,14.9 20.8,14.9 20.9,14.9 
		20.9,14.9 21,15 21.1,15 21.1,15 21.2,15 21.2,15 20.9,16.3 	"/>
	<polyline class="st3" points="20.9,16.3 20.9,16.3 20.8,16.3 20.8,16.3 20.7,16.3 20.6,16.3 20.5,16.2 20.5,16.2 20.4,16.2 
		20.3,16.2 20.2,16.2 20.1,16.2 20,16.2 19.9,16.2 19.8,16.2 19.7,16.2 19.5,16.2 19.4,16.2 19.4,16.2 19.2,16.2 19.1,16.2 19,16.3 
		19,16.3 18.9,16.3 18.8,16.4 18.7,16.5 18.7,16.5 18.7,16.6 18.6,16.6 18.6,16.7 18.6,16.8 18.6,16.8 18.7,16.9 18.7,17 18.8,17.1 
		18.8,17.1 18.9,17.2 19,17.3 19.2,17.3 19.3,17.4 19.5,17.5 19.7,17.5 19.9,17.6 20.1,17.7 20.3,17.8 20.4,17.9 20.6,18 20.7,18.2 
		20.8,18.4 20.8,18.7 20.9,19 20.8,19.3 20.8,19.3 20.8,19.6 20.7,19.9 20.6,20.1 20.5,20.3 20.4,20.4 20.2,20.6 20.1,20.7 
		19.9,20.8 19.7,20.9 19.5,21 19.3,21 19.1,21.1 18.9,21.1 18.7,21.1 18.6,21.1 18.4,21.1 18.4,21.1 18.1,21.1 17.9,21.1 17.7,21.1 
		17.5,21.1 17.3,21.1 17.2,21.1 17.1,21.1 16.9,21.1 16.8,21.1 16.7,21 16.6,21 16.5,21 16.4,21 16.3,20.9 16.2,20.9 16.1,20.9 
		16.4,19.6 16.4,19.6 16.4,19.6 16.5,19.6 16.6,19.7 16.7,19.7 16.8,19.7 16.9,19.7 17,19.8 17.1,19.8 17.3,19.8 17.4,19.8 
		17.6,19.8 17.7,19.9 17.9,19.9 18.1,19.9 18.2,19.9 18.4,19.9 18.4,19.9 18.6,19.8 18.7,19.8 18.8,19.7 18.9,19.6 18.9,19.6 
		19,19.5 19,19.4 19,19.3 19,19.3 19.1,19.1 19,19 18.9,18.9 18.8,18.8 18.6,18.7 18.4,18.6 18.2,18.5 17.9,18.4 17.7,18.3 
		17.5,18.2 17.3,18.1 17.1,17.9 17,17.7 16.9,17.4 16.8,17.1 16.8,16.7 16.8,16.7 16.8,16.5 16.9,16.3 16.9,16.1 17,15.9 17.1,15.7 
		17.2,15.6 17.3,15.4 17.5,15.3 17.6,15.2 17.8,15.1 18,15 18.3,15 18.5,14.9 18.8,14.9 19.1,14.9 19.4,14.8 19.4,14.8 19.7,14.8 
		19.9,14.9 20,14.9 20.2,14.9 20.3,14.9 20.5,14.9 20.6,14.9 20.7,14.9 20.8,14.9 20.9,14.9 20.9,14.9 21,15 21.1,15 21.1,15 
		21.2,15 21.2,15 20.9,16.3 	"/>
	<polygon class="st2" points="22.3,13.6 23.9,13.6 23.6,15 24.6,15 24.4,16.3 23.4,16.2 22.8,19.4 22.8,19.5 22.8,19.6 22.9,19.7 
		23,19.8 23.1,19.8 23.2,19.9 23.3,19.9 23.5,19.9 23.6,19.9 23.7,19.9 23.8,19.9 23.9,19.8 24,19.8 24,19.8 24.1,19.8 24.1,19.8 
		23.9,20.8 23.8,20.9 23.8,20.9 23.7,20.9 23.7,20.9 23.7,21 23.6,21 23.6,21 23.5,21 23.5,21 23.4,21 23.3,21.1 23.3,21.1 
		23.2,21.1 23.1,21.1 23,21.1 22.9,21.1 22.5,21.1 22.2,21.1 22,21.1 21.9,21 21.7,21 21.6,20.9 21.5,20.9 21.4,20.8 21.3,20.7 
		21.2,20.7 21.2,20.6 21.2,20.5 21.2,20.4 21.1,20.2 21.1,20.1 21.2,20 21.2,19.8 22.3,13.6 	"/>
	<polyline class="st3" points="22.3,13.6 23.9,13.6 23.6,15 24.6,15 24.4,16.3 23.4,16.2 22.8,19.4 22.8,19.4 22.8,19.5 22.8,19.6 
		22.9,19.7 23,19.8 23.1,19.8 23.2,19.9 23.3,19.9 23.5,19.9 23.5,19.9 23.6,19.9 23.7,19.9 23.8,19.9 23.9,19.8 24,19.8 24,19.8 
		24.1,19.8 24.1,19.8 23.9,20.8 23.9,20.8 23.8,20.9 23.8,20.9 23.7,20.9 23.7,20.9 23.7,21 23.6,21 23.6,21 23.5,21 23.5,21 
		23.4,21 23.3,21.1 23.3,21.1 23.2,21.1 23.1,21.1 23,21.1 22.9,21.1 22.5,21.1 22.5,21.1 22.2,21.1 22,21.1 21.9,21 21.7,21 
		21.6,20.9 21.5,20.9 21.4,20.8 21.3,20.7 21.2,20.7 21.2,20.6 21.2,20.5 21.2,20.4 21.1,20.2 21.1,20.1 21.2,20 21.2,19.8 
		22.3,13.6 	"/>
	<polyline class="st3" points="25.9,18.4 25.9,18.4 25.8,18.5 25.8,18.6 25.8,18.7 25.9,18.8 25.9,19 26,19.1 26,19.2 26.1,19.3 
		26.2,19.4 26.3,19.4 26.3,19.5 26.4,19.6 26.6,19.7 26.7,19.7 26.8,19.8 26.9,19.8 26.9,19.8 27,19.8 27.2,19.8 27.3,19.8 
		27.5,19.8 27.6,19.9 27.8,19.9 27.9,19.8 28.1,19.8 28.2,19.8 28.4,19.8 28.6,19.7 28.7,19.7 28.9,19.6 29,19.6 29.2,19.5 
		29.4,19.4 29.1,20.8 29.1,20.8 29.1,20.8 29,20.9 28.9,20.9 28.8,20.9 28.7,21 28.6,21 28.5,21 28.4,21 28.3,21.1 28.2,21.1 
		28.1,21.1 27.9,21.1 27.8,21.1 27.6,21.1 27.5,21.1 27.3,21.1 27.3,21.1 27,21.1 26.7,21.1 26.4,21 26.1,21 25.9,20.9 25.6,20.8 
		25.3,20.6 25.1,20.5 24.9,20.3 24.7,20 24.5,19.8 24.4,19.5 24.3,19.1 24.2,18.7 24.2,18.3 24.2,17.8 24.2,17.8 24.2,17.7 
		24.3,17.4 24.3,17.2 24.4,17 24.5,16.7 24.6,16.5 24.7,16.2 24.9,16 25,15.8 25.3,15.6 25.5,15.4 25.8,15.2 26.1,15 26.5,14.9 
		26.9,14.9 27.4,14.8 27.4,14.8 27.6,14.9 27.8,14.9 28.1,14.9 28.3,15 28.5,15.1 28.8,15.2 29,15.3 29.2,15.5 29.3,15.7 29.5,15.9 
		29.6,16.1 29.7,16.5 29.7,16.8 29.7,17.2 29.7,17.6 29.6,18.1 29.6,18.5 25.4,18.5 25.7,17.3 28.2,17.3 28.2,17.3 28.2,17.2 
		28.2,17 28.2,16.9 28.1,16.8 28.1,16.7 28.1,16.6 28,16.5 27.9,16.4 27.9,16.4 27.8,16.3 27.7,16.3 27.6,16.2 27.5,16.2 27.4,16.1 
		27.3,16.1 27.2,16.1 27.2,16.1 27.1,16.1 27,16.1 26.9,16.2 26.8,16.2 26.7,16.2 26.7,16.3 26.6,16.4 26.5,16.4 26.4,16.5 
		26.4,16.6 26.3,16.7 26.2,16.8 26.2,16.9 26.1,17 26.1,17.1 26.1,17.2 25.9,18.4 	"/>
	<polygon class="st2" points="39.5,15.3 39.5,15.3 39.4,15.2 39.3,15.2 39.2,15.2 39.1,15.1 39,15.1 38.9,15.1 38.8,15 38.7,15 
		38.6,15 38.5,14.9 38.4,14.9 38.2,14.9 38.1,14.9 38,14.9 37.8,14.9 37.7,14.9 37.5,14.9 37.4,14.9 37.2,15 37.1,15 36.9,15.1 
		36.7,15.1 36.6,15.3 36.4,15.4 36.3,15.5 36.1,15.7 36,15.9 35.9,16.2 35.8,16.5 35.6,16.8 35.6,17.2 35.5,17.4 35.5,17.6 
		35.5,17.8 35.5,18 35.5,18.1 35.5,18.3 35.6,18.5 35.7,18.7 35.7,18.8 35.8,19 36,19.1 36.1,19.2 36.3,19.3 36.4,19.4 36.6,19.5 
		36.9,19.5 36.9,19.6 37,19.6 37.1,19.6 37.2,19.6 37.4,19.6 37.5,19.6 37.6,19.6 37.8,19.6 37.9,19.6 38.1,19.6 38.2,19.5 
		38.4,19.5 38.5,19.4 38.6,19.3 38.8,19.2 38.9,19.1 38.6,20.7 38.6,20.7 38.5,20.7 38.5,20.8 38.4,20.8 38.4,20.9 38.3,20.9 
		38.2,20.9 38.1,21 38,21 37.8,21 37.7,21.1 37.5,21.1 37.2,21.1 37,21.1 36.7,21.1 36.4,21.1 36.1,21.1 35.8,21 35.6,20.9 
		35.3,20.8 35.1,20.7 34.8,20.5 34.6,20.3 34.4,20.1 34.2,19.8 34,19.5 33.9,19.2 33.8,18.8 33.7,18.5 33.7,18 33.7,17.6 33.8,17.1 
		33.8,16.9 33.9,16.7 33.9,16.4 34,16.2 34,16 34.1,15.8 34.2,15.6 34.3,15.5 34.4,15.3 34.4,15.1 34.5,14.9 34.6,14.8 34.7,14.7 
		34.9,14.5 35,14.4 35.1,14.3 35.2,14.2 35.4,14 35.5,14 35.6,13.9 35.8,13.8 35.9,13.7 36.1,13.6 36.3,13.6 36.5,13.5 36.6,13.5 
		36.8,13.4 37,13.4 37.2,13.4 37.4,13.3 37.6,13.3 37.8,13.3 38,13.3 38.2,13.3 38.4,13.4 38.5,13.4 38.7,13.4 38.9,13.4 39,13.5 
		39.1,13.5 39.3,13.5 39.4,13.6 39.5,13.6 39.6,13.6 39.7,13.7 39.7,13.7 39.8,13.7 39.8,13.7 39.5,15.3 	"/>
	<polyline class="st3" points="39.5,15.3 39.5,15.3 39.5,15.3 39.4,15.2 39.3,15.2 39.2,15.2 39.1,15.1 39,15.1 38.9,15.1 38.8,15 
		38.7,15 38.6,15 38.5,14.9 38.4,14.9 38.2,14.9 38.1,14.9 38,14.9 37.8,14.9 37.8,14.9 37.7,14.9 37.5,14.9 37.4,14.9 37.2,15 
		37.1,15 36.9,15.1 36.7,15.1 36.6,15.3 36.4,15.4 36.3,15.5 36.1,15.7 36,15.9 35.9,16.2 35.8,16.5 35.6,16.8 35.6,17.2 35.6,17.2 
		35.5,17.4 35.5,17.6 35.5,17.8 35.5,18 35.5,18.1 35.5,18.3 35.6,18.5 35.7,18.7 35.7,18.8 35.8,19 36,19.1 36.1,19.2 36.3,19.3 
		36.4,19.4 36.6,19.5 36.9,19.5 36.9,19.5 36.9,19.6 37,19.6 37.1,19.6 37.2,19.6 37.4,19.6 37.5,19.6 37.6,19.6 37.8,19.6 
		37.9,19.6 38.1,19.6 38.2,19.5 38.4,19.5 38.5,19.4 38.6,19.3 38.8,19.2 38.9,19.1 38.6,20.7 38.6,20.7 38.6,20.7 38.5,20.7 
		38.5,20.8 38.4,20.8 38.4,20.9 38.3,20.9 38.2,20.9 38.1,21 38,21 37.8,21 37.7,21.1 37.5,21.1 37.2,21.1 37,21.1 36.7,21.1 
		36.4,21.1 36.4,21.1 36.1,21.1 35.8,21 35.6,20.9 35.3,20.8 35.1,20.7 34.8,20.5 34.6,20.3 34.4,20.1 34.2,19.8 34,19.5 33.9,19.2 
		33.8,18.8 33.7,18.5 33.7,18 33.7,17.6 33.8,17.1 33.8,17.1 33.8,16.9 33.9,16.7 33.9,16.4 34,16.2 34,16 34.1,15.8 34.2,15.6 
		34.3,15.5 34.4,15.3 34.4,15.1 34.5,14.9 34.6,14.8 34.7,14.7 34.9,14.5 35,14.4 35.1,14.3 35.2,14.2 35.4,14 35.5,14 35.6,13.9 
		35.8,13.8 35.9,13.7 36.1,13.6 36.3,13.6 36.5,13.5 36.6,13.5 36.8,13.4 37,13.4 37.2,13.4 37.4,13.3 37.6,13.3 37.8,13.3 
		37.8,13.3 38,13.3 38.2,13.3 38.4,13.4 38.5,13.4 38.7,13.4 38.9,13.4 39,13.5 39.1,13.5 39.3,13.5 39.4,13.6 39.5,13.6 39.6,13.6 
		39.7,13.7 39.7,13.7 39.8,13.7 39.8,13.7 39.5,15.3 	"/>
	<polygon class="st2" points="53.7,21.1 52.1,21.1 52.2,20.5 52.2,20.4 52.1,20.5 52,20.6 51.9,20.7 51.8,20.8 51.7,20.9 51.6,20.9 
		51.5,21 51.4,21 51.3,21.1 51.2,21.1 51,21.1 50.9,21.2 50.8,21.2 50.7,21.2 50.6,21.2 50.5,21.2 50.2,21.2 49.9,21.1 49.7,21 
		49.4,20.9 49.2,20.7 49,20.5 48.9,20.3 48.7,20.1 48.6,19.8 48.5,19.5 48.5,19.3 48.4,19 48.4,18.7 48.4,18.4 48.4,18.1 48.5,17.8 
		48.6,17.4 48.7,17.1 48.8,16.8 48.9,16.6 49.1,16.3 49.3,16.1 49.4,15.9 49.6,15.7 49.8,15.5 50,15.4 50.3,15.2 50.5,15.1 
		50.7,15.1 50.9,15 51.2,15 51.4,15 51.6,15 51.7,15 51.9,15 52,15.1 52.1,15.1 52.3,15.2 52.4,15.2 52.5,15.3 52.6,15.3 52.7,15.4 
		52.7,15.5 52.8,15.6 52.9,15.6 52.9,15.7 53,15.8 53,15.9 53,15.9 53.4,13.6 54.9,13.6 53.7,21.1 	"/>
	<polyline class="st3" points="53.7,21.1 52.1,21.1 52.2,20.5 52.2,20.4 52.2,20.4 52.1,20.5 52,20.6 51.9,20.7 51.8,20.8 
		51.7,20.9 51.6,20.9 51.5,21 51.4,21 51.3,21.1 51.2,21.1 51,21.1 50.9,21.2 50.8,21.2 50.7,21.2 50.6,21.2 50.5,21.2 50.5,21.2 
		50.2,21.2 49.9,21.1 49.7,21 49.4,20.9 49.2,20.7 49,20.5 48.9,20.3 48.7,20.1 48.6,19.8 48.5,19.5 48.5,19.3 48.4,19 48.4,18.7 
		48.4,18.4 48.4,18.1 48.5,17.8 48.5,17.8 48.6,17.4 48.7,17.1 48.8,16.8 48.9,16.6 49.1,16.3 49.3,16.1 49.4,15.9 49.6,15.7 
		49.8,15.5 50,15.4 50.3,15.2 50.5,15.1 50.7,15.1 50.9,15 51.2,15 51.4,15 51.4,15 51.6,15 51.7,15 51.9,15 52,15.1 52.1,15.1 
		52.3,15.2 52.4,15.2 52.5,15.3 52.6,15.3 52.7,15.4 52.7,15.5 52.8,15.6 52.9,15.6 52.9,15.7 53,15.8 53,15.9 53,15.9 53.4,13.6 
		54.9,13.6 53.7,21.1 	"/>
	<polygon class="st0" points="51.1,19.7 51.2,19.7 51.4,19.7 51.5,19.6 51.6,19.6 51.8,19.5 51.9,19.4 52,19.3 52.1,19.2 52.2,19.1 
		52.2,19 52.3,18.8 52.4,18.7 52.4,18.6 52.5,18.4 52.5,18.3 52.6,18.1 52.6,17.9 52.6,17.8 52.6,17.6 52.6,17.5 52.6,17.3 
		52.6,17.2 52.5,17 52.5,16.9 52.4,16.8 52.3,16.7 52.3,16.6 52.2,16.5 52.1,16.4 52,16.4 51.9,16.4 51.8,16.3 51.6,16.4 51.5,16.4 
		51.3,16.4 51.2,16.5 51.1,16.6 51,16.7 50.9,16.7 50.8,16.9 50.7,17 50.6,17.1 50.5,17.3 50.5,17.4 50.4,17.6 50.4,17.7 50.3,17.9 
		50.3,18 50.2,18.3 50.3,18.6 50.3,18.9 50.4,19.1 50.5,19.4 50.6,19.5 50.8,19.7 51.1,19.7 	"/>
	<polygon class="st2" points="15.8,19.8 15.6,21.1 14.2,21.1 14.2,20.9 14.2,20.7 14.3,20.5 14.3,20.4 14.2,20.5 14.1,20.6 14,20.7 
		13.9,20.8 13.7,20.8 13.6,20.9 13.4,21 13.3,21 13.1,21.1 13,21.1 12.8,21.2 12.6,21.2 12.5,21.2 12.3,21.2 12.1,21.2 12,21.2 
		11.8,21.1 11.6,21.1 11.4,21 11.3,20.9 11.2,20.8 11,20.7 11,20.6 10.9,20.5 10.8,20.4 10.7,20.2 10.7,20.1 10.7,20 10.6,19.8 
		10.6,19.7 10.6,19.6 10.6,19.5 10.6,19.2 10.7,19 10.7,18.8 10.8,18.6 10.9,18.4 11,18.3 11.1,18.1 11.3,18 11.4,17.8 11.6,17.7 
		11.7,17.6 11.9,17.5 12.1,17.4 12.3,17.4 12.5,17.3 12.7,17.3 12.7,17.3 12.7,17.3 12.7,17.3 12.8,17.3 12.9,17.3 13,17.3 13,17.2 
		13.1,17.2 13.2,17.2 13.3,17.2 13.4,17.2 13.5,17.2 13.6,17.2 13.7,17.2 13.8,17.2 13.8,17.2 14,17.2 14.1,17.2 14.2,17.2 
		14.4,17.2 14.5,17.2 14.6,17.2 14.6,17.2 14.6,17.2 14.6,17.2 14.7,17.1 14.7,16.9 14.7,16.8 14.7,16.7 14.6,16.6 14.6,16.5 
		14.5,16.4 14.4,16.3 14.3,16.3 14.1,16.2 14,16.2 13.8,16.2 13.6,16.2 13.5,16.2 13.3,16.2 13.1,16.2 12.9,16.3 12.7,16.3 
		12.5,16.3 12.4,16.3 12.2,16.3 12,16.4 11.9,16.4 11.8,16.4 11.7,16.5 11.6,16.5 11.5,16.5 11.9,15.2 12.1,15.1 12.2,15.1 12.3,15 
		12.5,15 12.6,15 12.8,14.9 12.9,14.9 13.1,14.9 13.2,14.9 13.4,14.9 13.6,14.9 13.7,14.9 13.9,14.9 14.1,14.9 14.3,14.9 14.5,14.9 
		14.7,14.9 14.8,14.9 15,15 15.2,15 15.4,15.1 15.6,15.2 15.7,15.3 15.9,15.4 16,15.5 16.2,15.7 16.3,15.8 16.4,16 16.4,16.2 
		16.5,16.4 16.5,16.6 16.4,16.8 15.8,19.8 	"/>
	<polyline class="st3" points="15.8,19.8 15.6,21.1 14.2,21.1 14.2,21.1 14.2,20.9 14.2,20.7 14.3,20.5 14.3,20.4 14.3,20.4 
		14.2,20.5 14.1,20.6 14,20.7 13.9,20.8 13.7,20.8 13.6,20.9 13.4,21 13.3,21 13.1,21.1 13,21.1 12.8,21.2 12.6,21.2 12.5,21.2 
		12.3,21.2 12.1,21.2 12,21.2 12,21.2 11.8,21.1 11.6,21.1 11.4,21 11.3,20.9 11.2,20.8 11,20.7 11,20.6 10.9,20.5 10.8,20.4 
		10.7,20.2 10.7,20.1 10.7,20 10.6,19.8 10.6,19.7 10.6,19.6 10.6,19.5 10.6,19.5 10.6,19.2 10.7,19 10.7,18.8 10.8,18.6 10.9,18.4 
		11,18.3 11.1,18.1 11.3,18 11.4,17.8 11.6,17.7 11.7,17.6 11.9,17.5 12.1,17.4 12.3,17.4 12.5,17.3 12.7,17.3 12.7,17.3 12.7,17.3 
		12.7,17.3 12.7,17.3 12.8,17.3 12.9,17.3 13,17.3 13,17.2 13.1,17.2 13.2,17.2 13.3,17.2 13.4,17.2 13.5,17.2 13.6,17.2 13.7,17.2 
		13.8,17.2 13.8,17.2 13.8,17.2 14,17.2 14.1,17.2 14.2,17.2 14.4,17.2 14.5,17.2 14.6,17.2 14.6,17.2 14.6,17.2 14.6,17.2 
		14.6,17.2 14.7,17.1 14.7,16.9 14.7,16.8 14.7,16.8 14.7,16.7 14.6,16.6 14.6,16.5 14.5,16.4 14.4,16.3 14.3,16.3 14.1,16.2 
		14,16.2 14,16.2 13.8,16.2 13.6,16.2 13.5,16.2 13.3,16.2 13.1,16.2 12.9,16.3 12.7,16.3 12.5,16.3 12.4,16.3 12.2,16.3 12,16.4 
		11.9,16.4 11.8,16.4 11.7,16.5 11.6,16.5 11.5,16.5 11.9,15.2 11.9,15.2 12.1,15.1 12.2,15.1 12.3,15 12.5,15 12.6,15 12.8,14.9 
		12.9,14.9 13.1,14.9 13.2,14.9 13.4,14.9 13.6,14.9 13.7,14.9 13.9,14.9 14.1,14.9 14.3,14.9 14.5,14.9 14.5,14.9 14.7,14.9 
		14.8,14.9 15,15 15.2,15 15.4,15.1 15.6,15.2 15.7,15.3 15.9,15.4 16,15.5 16.2,15.7 16.3,15.8 16.4,16 16.4,16.2 16.5,16.4 
		16.5,16.6 16.4,16.8 15.8,19.8 	"/>
	<polygon class="st1" points="14.5,18.3 14.5,18.3 14.4,18.3 14.4,18.3 14.3,18.3 14.3,18.2 14.2,18.2 14.1,18.2 14,18.2 13.9,18.2 
		13.8,18.3 13.7,18.3 13.7,18.3 13.6,18.3 13.5,18.3 13.4,18.3 13.4,18.3 13.3,18.3 13.3,18.4 13.2,18.4 13.1,18.4 13.1,18.5 
		13,18.5 12.9,18.5 12.8,18.6 12.8,18.6 12.7,18.7 12.6,18.8 12.6,18.8 12.5,18.9 12.5,19 12.4,19.1 12.4,19.2 12.4,19.4 12.4,19.5 
		12.5,19.6 12.6,19.7 12.6,19.8 12.7,19.8 12.8,19.8 12.9,19.8 13.1,19.8 13.3,19.8 13.4,19.8 13.5,19.8 13.6,19.7 13.8,19.7 
		13.9,19.6 13.9,19.5 14,19.5 14.1,19.4 14.1,19.4 14.2,19.3 14.2,19.2 14.3,19.2 14.3,19.1 14.3,19 14.4,18.9 14.4,18.7 14.4,18.5 
		14.5,18.3 	"/>
	<polygon class="st2" points="3.8,21.1 2.2,21.1 3.5,13.6 6.2,13.6 6.5,18 8.4,13.6 11.2,13.6 9.9,21.1 8.3,21.1 9.3,15.5 9.2,15.5 
		6.9,21.1 5.1,21.1 5.1,20.9 5.1,20.2 5,19.4 5,18.3 4.9,17.3 4.9,16.4 4.8,15.8 4.8,15.5 4.8,15.5 4.8,15.5 4.7,15.5 4.7,15.5 
		3.8,21.1 	"/>
	<polyline class="st3" points="3.8,21.1 2.2,21.1 3.5,13.6 6.2,13.6 6.5,18 8.4,13.6 11.2,13.6 9.9,21.1 8.3,21.1 9.3,15.5 
		9.2,15.5 6.9,21.1 5.1,21.1 5.1,21.1 5.1,20.9 5.1,20.2 5,19.4 5,18.3 4.9,17.3 4.9,16.4 4.8,15.8 4.8,15.5 4.8,15.5 4.8,15.5 
		4.8,15.5 4.7,15.5 4.7,15.5 3.8,21.1 	"/>
	<polygon class="st2" points="44.3,19.8 44.1,21.1 42.6,21.1 42.6,20.9 42.6,20.7 42.6,20.5 42.7,20.4 42.6,20.5 42.5,20.6 
		42.4,20.7 42.3,20.8 42.2,20.8 42,20.9 41.9,21 41.7,21 41.6,21.1 41.4,21.1 41.3,21.2 41.1,21.2 40.9,21.2 40.8,21.2 40.6,21.2 
		40.5,21.2 40.3,21.1 40.1,21.1 39.9,21 39.8,20.9 39.6,20.8 39.5,20.7 39.4,20.6 39.4,20.5 39.3,20.4 39.2,20.2 39.2,20.1 39.2,20 
		39.1,19.8 39.1,19.7 39.1,19.6 39.1,19.5 39.1,19.2 39.2,19 39.2,18.8 39.3,18.6 39.4,18.4 39.5,18.3 39.6,18.1 39.7,18 39.9,17.8 
		40,17.7 40.2,17.6 40.4,17.5 40.5,17.4 40.7,17.4 40.9,17.3 41.1,17.3 41.1,17.3 41.2,17.3 41.2,17.3 41.3,17.3 41.3,17.3 
		41.4,17.3 41.5,17.2 41.6,17.2 41.7,17.2 41.8,17.2 41.9,17.2 42,17.2 42.1,17.2 42.2,17.2 42.2,17.2 42.3,17.2 42.4,17.2 
		42.6,17.2 42.7,17.2 42.8,17.2 42.9,17.2 43,17.2 43.1,17.2 43.1,17.2 43.1,17.2 43.1,17.1 43.2,16.9 43.2,16.8 43.1,16.7 
		43.1,16.6 43,16.5 42.9,16.4 42.8,16.3 42.7,16.3 42.6,16.2 42.5,16.2 42.3,16.2 42.1,16.2 41.9,16.2 41.8,16.2 41.6,16.2 
		41.4,16.3 41.2,16.3 41,16.3 40.9,16.3 40.7,16.3 40.5,16.4 40.4,16.4 40.3,16.4 40.2,16.5 40.1,16.5 40,16.5 40.4,15.2 40.6,15.1 
		40.7,15.1 40.8,15 41,15 41.1,15 41.2,14.9 41.4,14.9 41.5,14.9 41.7,14.9 41.9,14.9 42,14.9 42.2,14.9 42.4,14.9 42.6,14.9 
		42.8,14.9 43,14.9 43.1,14.9 43.3,14.9 43.5,15 43.7,15 43.8,15.1 44,15.2 44.2,15.3 44.4,15.4 44.5,15.5 44.6,15.7 44.7,15.8 
		44.8,16 44.9,16.2 44.9,16.4 44.9,16.6 44.9,16.8 44.3,19.8 	"/>
	<polygon class="st2" points="44.1,21.1 44.1,21.1 44.3,19.8 44.3,19.8 44,21.1 44.1,21.1 44.1,21.1 44.1,21.1 44.1,21.1 44.1,21.1 
			"/>
	<polygon class="st2" points="42.6,21.1 42.6,21.1 44.1,21.1 44.1,21.1 42.6,21.1 42.7,21.1 42.6,21.1 42.6,21.1 42.6,21.1 
		42.6,21.1 	"/>
	<polygon class="st2" points="42.7,20.5 42.6,20.4 42.6,20.5 42.6,20.7 42.6,20.9 42.6,21.1 42.7,21.1 42.7,20.9 42.7,20.7 
		42.7,20.5 42.7,20.5 42.6,20.4 42.7,20.5 	"/>
	<polygon class="st2" points="40.5,21.2 40.5,21.2 40.6,21.2 40.8,21.2 40.9,21.2 41.1,21.2 41.3,21.2 41.4,21.2 41.6,21.1 
		41.7,21.1 41.9,21 42,21 42.2,20.9 42.3,20.8 42.4,20.7 42.5,20.6 42.6,20.6 42.7,20.5 42.6,20.4 42.6,20.5 42.5,20.6 42.4,20.7 
		42.3,20.7 42.1,20.8 42,20.9 41.9,21 41.7,21 41.6,21.1 41.4,21.1 41.2,21.1 41.1,21.2 40.9,21.2 40.8,21.2 40.6,21.2 40.5,21.1 
		40.5,21.1 40.5,21.2 	"/>
	<polygon class="st2" points="39.1,19.5 39.1,19.5 39.1,19.6 39.1,19.7 39.1,19.9 39.1,20 39.2,20.1 39.2,20.2 39.2,20.4 39.3,20.5 
		39.4,20.6 39.5,20.7 39.6,20.8 39.7,20.9 39.9,21 40.1,21.1 40.2,21.1 40.5,21.2 40.5,21.1 40.3,21.1 40.1,21 39.9,20.9 39.8,20.9 
		39.7,20.8 39.6,20.7 39.5,20.6 39.4,20.5 39.3,20.3 39.3,20.2 39.2,20.1 39.2,20 39.2,19.8 39.2,19.7 39.1,19.6 39.1,19.5 
		39.1,19.5 39.1,19.5 	"/>
	<polygon class="st2" points="41.1,17.3 41.1,17.3 40.9,17.3 40.7,17.3 40.5,17.4 40.4,17.5 40.2,17.6 40,17.7 39.8,17.8 39.7,18 
		39.6,18.1 39.4,18.3 39.3,18.4 39.2,18.6 39.2,18.8 39.1,19 39.1,19.2 39.1,19.5 39.1,19.5 39.2,19.2 39.2,19 39.2,18.8 39.3,18.6 
		39.4,18.5 39.5,18.3 39.6,18.1 39.7,18 39.9,17.9 40.1,17.8 40.2,17.7 40.4,17.6 40.6,17.5 40.8,17.4 40.9,17.4 41.1,17.3 
		41.1,17.3 41.1,17.3 	"/>
	<polygon class="st2" points="42.3,17.1 42.3,17.1 42.2,17.1 42.2,17.2 42.1,17.2 42,17.2 41.9,17.2 41.8,17.2 41.7,17.2 41.6,17.2 
		41.5,17.2 41.4,17.2 41.3,17.2 41.3,17.2 41.2,17.2 41.2,17.3 41.1,17.3 41.1,17.3 41.1,17.3 41.1,17.3 41.2,17.3 41.2,17.3 
		41.3,17.3 41.3,17.3 41.4,17.3 41.5,17.3 41.6,17.3 41.7,17.3 41.8,17.2 41.9,17.2 42,17.2 42.1,17.2 42.2,17.2 42.2,17.2 
		42.3,17.2 42.3,17.2 42.3,17.1 	"/>
	<polygon class="st2" points="43.1,17.2 43.1,17.2 43.1,17.2 43,17.2 42.9,17.2 42.8,17.2 42.7,17.2 42.6,17.2 42.4,17.1 42.3,17.1 
		42.3,17.2 42.4,17.2 42.6,17.2 42.7,17.2 42.8,17.2 42.9,17.2 43,17.2 43.1,17.2 43.1,17.2 43.1,17.2 43.1,17.2 43.1,17.2 
		43.1,17.2 43.1,17.2 	"/>
	<polygon class="st2" points="43.1,16.8 43.1,16.8 43.1,16.9 43.1,17.1 43.1,17.2 43.1,17.2 43.1,17.2 43.2,17.2 43.2,17.1 
		43.2,16.9 43.2,16.8 43.2,16.8 43.1,16.8 	"/>
	<polygon class="st2" points="42.5,16.3 42.5,16.3 42.6,16.3 42.7,16.3 42.8,16.4 42.9,16.4 43,16.5 43.1,16.6 43.1,16.7 43.1,16.8 
		43.2,16.8 43.2,16.7 43.1,16.6 43.1,16.5 43,16.4 42.9,16.3 42.7,16.2 42.6,16.2 42.5,16.2 42.5,16.2 42.5,16.3 	"/>
	<polygon class="st2" points="40,16.5 40.1,16.6 40.1,16.5 40.2,16.5 40.3,16.5 40.4,16.4 40.5,16.4 40.7,16.4 40.9,16.4 41,16.3 
		41.2,16.3 41.4,16.3 41.6,16.3 41.8,16.3 41.9,16.3 42.1,16.3 42.3,16.3 42.5,16.3 42.5,16.2 42.3,16.2 42.1,16.2 41.9,16.2 
		41.8,16.2 41.6,16.2 41.4,16.2 41.2,16.2 41,16.3 40.8,16.3 40.7,16.3 40.5,16.3 40.4,16.4 40.3,16.4 40.2,16.4 40.1,16.5 40,16.5 
		40.1,16.6 40,16.5 	"/>
	<polygon class="st2" points="40.4,15.1 40.4,15.2 40,16.5 40.1,16.6 40.5,15.2 40.4,15.2 40.4,15.1 40.4,15.1 40.4,15.2 40.4,15.1 
			"/>
	<polygon class="st2" points="43,14.9 43,14.9 42.8,14.9 42.6,14.9 42.4,14.9 42.2,14.9 42,14.9 41.9,14.9 41.7,14.9 41.5,14.9 
		41.4,14.9 41.2,14.9 41.1,14.9 41,15 40.8,15 40.7,15 40.5,15.1 40.4,15.1 40.4,15.2 40.6,15.1 40.7,15.1 40.8,15.1 41,15 41.1,15 
		41.2,15 41.4,15 41.5,14.9 41.7,14.9 41.9,14.9 42,14.9 42.2,14.9 42.4,14.9 42.6,14.9 42.8,14.9 43,14.9 43,14.9 43,14.9 	"/>
	<polygon class="st2" points="44.9,16.8 44.9,16.8 45,16.6 45,16.4 44.9,16.2 44.9,16 44.8,15.8 44.7,15.6 44.5,15.5 44.4,15.4 
		44.2,15.3 44,15.1 43.9,15.1 43.7,15 43.5,14.9 43.3,14.9 43.1,14.9 43,14.9 43,14.9 43.1,14.9 43.3,15 43.5,15 43.7,15.1 
		43.8,15.1 44,15.2 44.2,15.3 44.3,15.4 44.5,15.5 44.6,15.7 44.7,15.8 44.8,16 44.9,16.2 44.9,16.4 44.9,16.6 44.9,16.8 44.9,16.8 
		44.9,16.8 	"/>
	<polygon class="st2" points="44.3,19.8 44.3,19.8 44.9,16.8 44.9,16.8 44.3,19.8 44.3,19.8 44.3,19.8 	"/>
	<polygon class="st0" points="42.9,18.3 42.9,18.3 42.9,18.3 42.8,18.3 42.8,18.2 42.7,18.2 42.6,18.2 42.6,18.2 42.5,18.2 
		42.4,18.2 42.3,18.3 42.2,18.3 42.1,18.3 42,18.3 41.9,18.3 41.9,18.3 41.8,18.3 41.8,18.3 41.7,18.4 41.7,18.4 41.6,18.4 
		41.5,18.4 41.5,18.5 41.4,18.5 41.3,18.6 41.2,18.6 41.2,18.7 41.1,18.7 41,18.8 41,18.9 40.9,19 40.9,19.1 40.9,19.2 40.9,19.4 
		40.9,19.5 41,19.6 41,19.7 41.1,19.8 41.2,19.8 41.3,19.8 41.4,19.8 41.6,19.8 41.7,19.8 41.9,19.8 42,19.7 42.1,19.7 42.3,19.6 
		42.4,19.6 42.5,19.5 42.5,19.5 42.6,19.4 42.7,19.3 42.7,19.2 42.8,19.2 42.8,19.1 42.8,19 42.8,19 42.8,18.8 42.9,18.6 42.9,18.5 
		42.9,18.3 	"/>
	<polygon class="st2" points="54.7,20.3 54.7,20.2 54.8,20 54.9,19.9 55,19.8 55.1,19.7 55.2,19.6 55.4,19.6 55.5,19.5 55.7,19.6 
		55.8,19.6 56,19.7 56.1,19.8 56.2,19.9 56.3,20 56.3,20.2 56.3,20.3 56.2,20.3 56.2,20.2 56.1,20.1 56.1,20 56,19.9 55.9,19.8 
		55.8,19.7 55.7,19.7 55.5,19.7 55.4,19.7 55.3,19.7 55.2,19.8 55.1,19.9 55,20 54.9,20.1 54.9,20.2 54.9,20.3 54.7,20.3 	"/>
	<polygon class="st2" points="55.2,20.3 55.2,20 55.6,20 55.6,20 55.7,20 55.7,20 55.8,20 55.8,20.1 55.8,20.1 55.8,20.1 55.8,20.2 
		55.8,20.2 55.8,20.3 55.8,20.3 55.8,20.3 55.6,20.3 55.6,20.3 55.6,20.3 55.7,20.3 55.7,20.3 55.7,20.3 55.7,20.3 55.7,20.2 
		55.7,20.2 55.7,20.2 55.7,20.1 55.7,20.1 55.7,20.1 55.6,20.1 55.6,20.1 55.6,20.1 55.6,20.1 55.4,20.1 55.4,20.3 55.2,20.3 	"/>
	<polygon class="st2" points="54.7,20.3 54.7,20.4 54.7,20.5 54.8,20.7 54.9,20.8 55,20.9 55.1,21 55.2,21.1 55.4,21.1 55.5,21.2 
		55.7,21.1 55.8,21.1 56,21 56.1,20.9 56.2,20.8 56.3,20.7 56.3,20.5 56.3,20.4 56.3,20.3 56.2,20.3 56.2,20.4 56.2,20.5 56.1,20.6 
		56.1,20.7 56,20.8 55.9,20.9 55.8,21 55.7,21 55.5,21 55.4,21 55.3,21 55.2,20.9 55.1,20.8 55,20.7 54.9,20.6 54.9,20.5 54.9,20.4 
		54.9,20.3 54.7,20.3 	"/>
	<polygon class="st2" points="55.2,20.3 55.2,20.7 55.4,20.7 55.4,20.4 55.5,20.4 55.7,20.7 55.8,20.7 55.6,20.4 55.7,20.4 
		55.7,20.4 55.8,20.4 55.8,20.3 55.8,20.3 55.6,20.3 55.5,20.3 55.4,20.3 55.4,20.3 55.2,20.3 	"/>
	<path class="st3" d="M54.7,20.4L54.7,20.4v-0.2V20l0.1-0.1l0.1-0.1l0.1-0.1l0.1-0.1h0.1h0.2l0,0h0.2h0.1l0.1,0.1l0.1,0.1l0.1,0.1
		l0.1,0.1v0.2v0.2l0,0v0.2v0.2L56,20.9L55.9,21l0.1,0l-0.1,0.1h-0.1h-0.2l0,0h-0.2h-0.1L55.1,21L55,20.9l-0.1-0.1l-0.1-0.1v-0.2
		L54.7,20.4 M55.4,20.7L55.4,20.7L55.3,20h0.3l0,0h0.1h0.1l0,0l0,0l0,0l0,0l0,0l0,0l0,0v0.1l0,0l0,0l0,0l0,0l0,0l0,0l0,0l0.2,0.3
		h-0.1l-0.2-0.3h-0.1v0.6 M55.5,20.3L55.5,20.3L55.5,20.3L55.5,20.3L55.5,20.3L55.5,20.3L55.5,20.3L55.5,20.3L55.5,20.3L55.5,20.3
		L55.5,20.3L55.5,20.3L55.5,20.3L55.5,20.3L55.5,20.3L55.5,20.3L55.5,20.3L55.5,20.3L55.5,20.3h-0.1v0.2h0.1 M55.5,21L55.5,21
		L55.5,21h0.2l0.1-0.1l0.1-0.1l0.1-0.1l0.1-0.1v-0.1v-0.1l0,0v-0.1v-0.1l0-0.2L56,19.9l-0.1-0.1l-0.1-0.1h-0.1h-0.1l0,0h-0.1h-0.1
		l-0.1,0.1l-0.1,0.1L55,20l-0.1,0.1v0.1v0.1l0,0v0.1v0.1l0.1,0.1l0.1,0.1l0.1,0.1l0.1,0.1h0.1L55.5,21"/>
	<polygon class="st2" points="44.7,21.1 46.3,21.1 46.3,21.1 46.9,17.8 46.9,17.7 47,17.6 47,17.5 47.1,17.3 47.1,17.2 47.2,17.1 
		47.3,17 47.4,16.9 47.5,16.8 47.6,16.7 47.7,16.6 47.9,16.5 48,16.5 48.2,16.4 48.4,16.4 48.6,16.4 48.7,16.4 48.8,16.4 48.8,16.4 
		48.8,16.4 49,14.9 48.9,14.9 48.7,14.9 48.6,15 48.4,15 48.3,15 48.2,15.1 48.1,15.2 48,15.2 47.9,15.3 47.8,15.4 47.7,15.5 
		47.6,15.6 47.5,15.7 47.4,15.8 47.3,15.9 47.2,16 47.4,15 45.8,15 44.7,21.1 44.7,21.1 	"/>
	<polyline class="st3" points="44.7,21.1 46.3,21.1 46.3,21.1 46.9,17.8 46.9,17.8 46.9,17.7 47,17.6 47,17.5 47.1,17.3 47.1,17.2 
		47.2,17.1 47.3,17 47.4,16.9 47.5,16.8 47.6,16.7 47.7,16.6 47.9,16.5 48,16.5 48.2,16.4 48.4,16.4 48.6,16.4 48.6,16.4 48.7,16.4 
		48.8,16.4 48.8,16.4 48.8,16.4 49,14.9 49,14.9 48.9,14.9 48.7,14.9 48.6,15 48.4,15 48.3,15 48.2,15.1 48.1,15.2 48,15.2 
		47.9,15.3 47.8,15.4 47.7,15.5 47.6,15.6 47.5,15.7 47.4,15.8 47.3,15.9 47.2,16 47.4,15 45.8,15 44.7,21.1 44.7,21.1 	"/>
	<polygon class="st2" points="29.5,21.1 31.2,21.1 31.2,21.1 31.7,17.8 31.8,17.7 31.8,17.6 31.8,17.5 31.9,17.4 31.9,17.2 32,17.1 
		32,17 32.1,16.9 32.2,16.9 32.3,16.8 32.4,16.7 32.6,16.6 32.7,16.6 32.9,16.5 33.1,16.5 33.3,16.5 33.3,16.5 33.4,16.5 33.4,16.5 
		33.4,16.5 33.5,16.5 33.5,16.5 33.5,16.5 33.5,16.5 33.5,16.5 33.5,16.4 33.5,16.3 33.6,16.2 33.6,16 33.7,15.9 33.7,15.7 
		33.8,15.6 33.8,15.5 33.9,15.3 33.9,15.2 34,15.1 34,15.1 34.1,15 34.1,14.9 34.1,14.9 34.1,14.9 34.1,14.9 34.1,14.9 34,14.9 
		34,14.9 33.9,14.9 33.9,14.9 33.8,14.9 33.7,14.9 33.5,14.9 33.4,15 33.2,15 33.1,15 33,15.1 32.9,15.2 32.8,15.2 32.7,15.3 
		32.6,15.4 32.5,15.5 32.4,15.6 32.3,15.7 32.2,15.8 32.1,15.9 32.1,16 32.3,15 30.6,15 29.5,21.1 29.5,21.1 	"/>
	<polyline class="st3" points="29.5,21.1 31.2,21.1 31.2,21.1 31.7,17.8 31.7,17.8 31.8,17.7 31.8,17.6 31.8,17.5 31.9,17.4 
		31.9,17.2 32,17.1 32,17 32.1,16.9 32.2,16.9 32.3,16.8 32.4,16.7 32.6,16.6 32.7,16.6 32.9,16.5 33.1,16.5 33.3,16.5 33.3,16.5 
		33.3,16.5 33.4,16.5 33.4,16.5 33.4,16.5 33.5,16.5 33.5,16.5 33.5,16.5 33.5,16.5 33.5,16.5 33.5,16.5 33.5,16.4 33.5,16.3 
		33.6,16.2 33.6,16 33.7,15.9 33.7,15.7 33.8,15.6 33.8,15.6 33.8,15.5 33.9,15.3 33.9,15.2 34,15.1 34,15.1 34.1,15 34.1,14.9 
		34.1,14.9 34.1,14.9 34.1,14.9 34.1,14.9 34.1,14.9 34,14.9 34,14.9 33.9,14.9 33.9,14.9 33.8,14.9 33.8,14.9 33.7,14.9 33.5,14.9 
		33.4,15 33.2,15 33.1,15 33,15.1 32.9,15.2 32.8,15.2 32.7,15.3 32.6,15.4 32.5,15.5 32.4,15.6 32.3,15.7 32.2,15.8 32.1,15.9 
		32.1,16 32.3,15 30.6,15 29.5,21.1 29.5,21.1 	"/>
	<path class="st2" d="M29.7,16.8v-0.3l-0.1-0.3l-0.1-0.3l-0.1-0.2l-0.2-0.2L29,15.3l-0.2-0.1l-0.2-0.1L28.3,15l-0.2-0.1h-0.2h-0.2
		h-0.2H27L26.6,15h-0.5l-0.3,0.1l-0.3,0.2l-0.3,0.2L25,15.8L24.9,16l-0.2,0.2l-0.1,0.3l-0.1,0.2L24.4,17l-0.1,0.2v0.2v0.2v0.2v0.5
		v0.4l0.1,0.4l0.1,0.3l0.1,0.3l0.2,0.3l0.2,0.2l0.2,0.2l0.2,0.2l0.3,0.1l0.3,0.1l0.3,0.1l0.3,0.1h0.3h0.3h0.3h0.2h0.2h0.2h0.1h0.1
		h0.1h0.1h0.1h0.1h0.1h0.1H29h0.1h0.1h0.1h0.1l0.2-1.4l-0.2,0.1L29,19.6l-0.2,0.1l-0.2,0.1l-0.2,0.1h-0.2H28h-0.2h-0.2h-0.1h-0.2
		h-0.1h-0.1H27h-0.1h-0.1h-0.1h-0.1l-0.1-0.1l-0.1-0.1l-0.1-0.1l-0.1-0.1l-0.1-0.1L26,19.3l0-0.1v-0.1V19v-0.1v-0.1v-0.1v-0.1v-0.1
		h3.7v-0.3l0.1-0.5v-0.4L29.7,16.8z M28.2,17.3h-2.1l0,0l0,0v-0.1v-0.1V17v-0.1l0.1-0.1l0.1-0.1l0.1-0.1l0.1-0.1l0.1-0.1l0.1-0.1
		l0.1-0.1l0.1-0.1H27h0.1h0.1h0.1h0.1h0.1h0.1h0.1h0.1h0.1l0.1,0.1l0.1,0.1l0.1,0.1l0.1,0.1l0.1,0.1v0.1v0.1v0.1V17v0.1L28.2,17.3z"
		/>
</g>
</svg>
