<?xml version="1.0" encoding="utf-8"?>
<!-- Generator: Adobe Illustrator 21.0.1, SVG Export Plug-In . SVG Version: 6.00 Build 0)  -->
<svg version="1.1" id="Layer_1" xmlns="http://www.w3.org/2000/svg" xmlns:xlink="http://www.w3.org/1999/xlink" x="0px" y="0px"
	 viewBox="0 0 40 40" style="enable-background:new 0 0 40 40;" xml:space="preserve">
<style type="text/css">
	.st0{fill:#546E7A;}
</style>
<path class="st0" d="M36,11.9c0,0.3,0,0.6,0,1.1c0,10.7-8.3,23-23.4,23c-4.6,0-9-1.3-12.6-3.7c0.6,0,1.3,0.2,1.9,0.2
	c3.8,0,7.4-1.3,10.2-3.5c-3.5,0-6.6-2.4-7.7-5.6c0.5,0.2,1,0.2,1.6,0.2c0.8,0,1.4-0.2,2.2-0.3c-3.7-0.8-6.6-4-6.6-8c0,0,0,0,0-0.2
	c1.1,0.6,2.4,1,3.7,1c-2.2-1.4-3.7-4-3.7-6.7c0-1.4,0.5-2.9,1.1-4c4,5,10.1,8.2,17,8.5c-0.2-0.6-0.2-1.3-0.2-1.9c0-4.5,3.7-8,8.2-8
	c2.4,0,4.5,1,5.9,2.6c1.9-0.3,3.7-1,5.3-1.9c-0.6,1.9-1.9,3.5-3.7,4.5C37,8.9,38.6,8.4,40,7.8C39,9.4,37.6,10.8,36,11.9z"/>
</svg>
