<?xml version="1.0" encoding="utf-8"?>
<!-- Generator: Adobe Illustrator 21.0.1, SVG Export Plug-In . SVG Version: 6.00 Build 0)  -->
<svg version="1.1" id="Layer_1" xmlns="http://www.w3.org/2000/svg" xmlns:xlink="http://www.w3.org/1999/xlink" x="0px" y="0px"
	 viewBox="0 0 74.9 34" style="enable-background:new 0 0 74.9 34;" xml:space="preserve">
<style type="text/css">
	.st0{fill:#2B3894;}
	.st1{fill:#F79510;}
</style>
<g>
	<g>
		<polygon class="st0" points="33.3,26.8 28.3,26.8 31.5,7.4 36.5,7.4 		"/>
		<path class="st0" d="M24.1,7.4l-4.8,13.3l-0.6-2.9l0,0L17,9.2c0,0-0.2-1.7-2.4-1.7H6.7L6.6,7.8c0,0,2.4,0.5,5.3,2.2l4.4,16.8h5.2
			l8-19.3L24.1,7.4L24.1,7.4z"/>
		<path class="st0" d="M63.7,26.8h4.6l-4-19.3h-4c-1.9,0-2.3,1.4-2.3,1.4l-7.5,17.9h5.2l1-2.9h6.4L63.7,26.8z M58.1,19.9l2.6-7.2
			l1.5,7.2H58.1z"/>
		<path class="st0" d="M50.8,12.1L51.5,8c0,0-2.2-0.8-4.5-0.8c-2.5,0-8.4,1.1-8.4,6.4c0,5,7,5.1,7,7.7s-6.2,2.2-8.3,0.5L36.4,26
			c0,0,2.2,1.1,5.7,1.1c3.4,0,8.6-1.8,8.6-6.6c0-5-7-5.5-7-7.7C43.7,10.6,48.6,10.9,50.8,12.1z"/>
	</g>
	<path class="st1" d="M18.7,17.9L17,9.2c0,0-0.2-1.7-2.4-1.7H6.7L6.6,7.8c0,0,3.8,0.8,7.5,3.7C17.6,14.3,18.7,17.9,18.7,17.9z"/>
</g>
</svg>
