<?xml version="1.0" encoding="utf-8"?>
<!-- Generator: Adobe Illustrator 21.0.1, SVG Export Plug-In . SVG Version: 6.00 Build 0)  -->
<svg version="1.1" id="Layer_1" xmlns="http://www.w3.org/2000/svg" xmlns:xlink="http://www.w3.org/1999/xlink" x="0px" y="0px"
	 viewBox="0 0 34 34" style="enable-background:new 0 0 34 34;" xml:space="preserve">
<style type="text/css">
	.st0{fill:#006AB4;}
</style>
<g>
	<path class="st0" d="M16.9,0c2.7,0,5.2,0.6,7.4,1.7c0.4,0.2,0.7,0.4,1.1,0.6l-1.6,1.4l-2.4-2.4l-4,3.5L15,2.2L7.8,8.9l4.7,5.2
		l-1.9,1.6l4.7,5.2l-1.9,1.6l6.7,7.4l4-3.6l3.4,3.9c-0.7,0.5-1.4,1-2.2,1.5C22.8,33.2,20,34,16.9,34c-9.4,0-17-7.6-17-17
		C-0.1,7.6,7.6,0,16.9,0L16.9,0z"/>
	<polygon class="st0" points="13.8,15.9 17.9,12.3 21.5,16.3 17.5,20 	"/>
	<polygon class="st0" points="16.7,22.9 20.8,19.3 24.4,23.3 20.4,27 	"/>
	<polygon class="st0" points="10.9,9 15,5.4 18.6,9.4 14.6,13.1 	"/>
	<polygon class="st0" points="18.4,7.1 21.4,4.3 24.1,7.4 21.1,10.1 	"/>
	<polygon class="st0" points="23.8,19.6 26.8,16.8 29.5,19.9 26.5,22.6 	"/>
	<polygon class="st0" points="26.4,25.7 29.4,23 32.2,26 29.1,28.7 	"/>
	<polygon class="st0" points="27.6,11.7 29.7,9.8 31.5,11.9 29.5,13.7 	"/>
	<polygon class="st0" points="25.1,5.6 27.1,3.8 28.9,5.9 26.9,7.7 	"/>
	<polygon class="st0" points="30.2,17.7 32.2,15.8 34.1,17.9 32,19.7 	"/>
	<polygon class="st0" points="21.2,13.2 24.2,10.4 26.9,13.5 23.9,16.2 	"/>
</g>
</svg>
