<?xml version="1.0" encoding="utf-8"?>
<!-- Generator: Adobe Illustrator 21.0.1, SVG Export Plug-In . SVG Version: 6.00 Build 0)  -->
<svg version="1.1" id="Layer_1" xmlns="http://www.w3.org/2000/svg" xmlns:xlink="http://www.w3.org/1999/xlink" x="0px" y="0px"
	 viewBox="0 0 34 34" style="enable-background:new 0 0 34 34;" xml:space="preserve">
<style type="text/css">
	.st0{clip-path:url(#SVGID_2_);fill:#FFCC00;}
	.st1{fill:#D6AB05;}
	.st2{fill:#1C1C1B;}
</style>
<g>
	<g>
		<defs>
			<rect id="SVGID_1_" x="3.9" y="-0.1" width="25.9" height="34"/>
		</defs>
		<clipPath id="SVGID_2_">
			<use xlink:href="#SVGID_1_"  style="overflow:visible;"/>
		</clipPath>
		<path class="st0" d="M3.9,16.8c0-1.9,0.2-3.1,4.1-6.1C11.2,8.3,21.7-0.1,21.7-0.1v13.9h8v20.1H6.4c-1.4,0-2.5-1.1-2.5-2.5V16.8"/>
	</g>
</g>
<polyline class="st1" points="21.7,13.9 21.7,22 7.1,31.9 25.6,25.9 25.6,13.9 21.7,13.9 "/>
<path class="st2" d="M15,13.5c0.9-1,2.1-1.4,2.8-0.8c0.7,0.6,0.6,1.9-0.3,2.9s-2.1,1.4-2.8,0.8C14,15.8,14.2,14.5,15,13.5"/>
</svg>
